<?xml version="1.0" standalone="no"?>
<!DOCTYPE svg PUBLIC "-//W3C//DTD SVG 20010904//EN"
 "http://www.w3.org/TR/2001/REC-SVG-20010904/DTD/svg10.dtd">
<svg version="1.0" xmlns="http://www.w3.org/2000/svg"
 width="512.000000pt" height="512.000000pt" viewBox="0 0 512.000000 512.000000"
 preserveAspectRatio="xMidYMid meet">
<metadata>
Created by potrace 1.14, written by Peter Selinger 2001-2017
</metadata>
<g transform="translate(0.000000,512.000000) scale(0.100000,-0.100000)"
fill="#000000" stroke="none">
<path d="M905 5114 c-141 -18 -246 -49 -365 -110 -267 -137 -460 -397 -522
-704 -19 -95 -19 -3385 0 -3480 83 -412 390 -719 802 -802 95 -19 3385 -19
3480 0 412 83 719 390 802 802 19 95 19 3385 0 3480 -71 354 -321 647 -650
761 -161 56 -44 53 -1852 55 -916 1 -1678 0 -1695 -2z m3421 -357 c201 -68
363 -230 432 -431 l27 -81 0 -1685 0 -1685 -28 -81 c-70 -208 -237 -370 -447
-436 l-75 -23 -1675 0 -1675 0 -75 23 c-210 66 -377 228 -447 436 l-28 81 0
1685 0 1685 27 81 c80 233 276 405 519 453 24 5 785 8 1704 7 l1660 -1 81 -28z"/>
<path d="M1030 4489 c-188 -31 -347 -195 -380 -390 -43 -254 136 -497 396
-540 250 -41 494 140 535 397 40 249 -139 493 -391 533 -74 12 -84 12 -160 0z
m158 -339 c95 -58 95 -192 0 -250 -93 -56 -218 15 -218 125 0 78 67 145 145
145 22 0 54 -9 73 -20z"/>
<path d="M2170 4152 c0 -6 5 -14 10 -17 6 -4 7 -11 4 -17 -4 -7 -2 -8 5 -4 9
6 9 12 -1 24 -7 10 -14 19 -15 21 -2 2 -3 -1 -3 -7z"/>
<path d="M2216 4152 c-3 -5 1 -9 9 -9 8 0 15 4 15 9 0 4 -4 8 -9 8 -6 0 -12
-4 -15 -8z"/>
<path d="M2422 4144 c-16 -17 -15 -31 2 -37 8 -3 13 -14 11 -24 -2 -10 -4 -20
-4 -23 -1 -3 -6 2 -11 10 -9 13 -10 13 -10 0 -1 -12 -3 -11 -11 3 -5 9 -14 17
-19 17 -5 0 -7 -8 -4 -17 5 -15 4 -16 -5 -3 -10 14 -16 7 -12 -13 1 -5 -3 -6
-9 -2 -5 3 -10 -1 -10 -9 0 -20 17 -30 23 -14 3 8 6 5 6 -5 1 -12 -4 -16 -11
-13 -7 3 -21 9 -30 12 -10 4 -18 11 -18 16 0 5 4 7 9 4 8 -6 18 9 19 28 0 5 6
13 14 17 9 6 4 9 -15 9 -17 0 -26 4 -22 11 4 6 13 8 21 5 8 -3 14 0 14 8 0 11
-29 14 -50 6 -3 -1 -9 -2 -15 -1 -5 1 2 -10 18 -23 27 -25 35 -46 17 -46 -5 0
-10 5 -10 11 0 6 -7 8 -16 5 -12 -4 -15 -2 -11 9 4 8 1 17 -6 21 -7 4 -9 4 -5
-1 4 -4 3 -16 -3 -26 -8 -16 -13 -17 -32 -7 -20 10 -21 10 -8 -5 9 -12 10 -17
2 -17 -7 0 -9 -5 -5 -12 4 -6 3 -8 -3 -5 -6 4 -13 0 -16 -7 -8 -20 -44 -16
-44 4 0 15 15 30 31 30 5 0 3 -7 -4 -15 -7 -9 -10 -19 -6 -22 14 -14 33 38 27
71 -1 5 5 4 13 -3 8 -7 21 -11 28 -8 8 3 3 9 -12 15 -26 10 -74 -4 -65 -19 3
-4 -4 -15 -17 -23 -19 -14 -23 -14 -34 2 -8 9 -14 13 -14 9 0 -4 -9 -3 -19 2
-16 9 -18 8 -14 -8 3 -10 0 -22 -6 -25 -6 -4 -11 -13 -11 -19 0 -7 5 -4 11 5
5 9 16 15 23 12 8 -3 16 2 19 13 4 16 5 16 6 1 0 -10 7 -18 14 -18 9 0 8 -3
-2 -9 -7 -5 -21 -7 -30 -4 -24 6 -40 -33 -35 -84 2 -23 -1 -45 -6 -48 -6 -4
-7 1 -3 11 5 14 3 15 -15 5 -12 -7 -22 -9 -22 -5 0 3 -7 1 -15 -6 -8 -6 -18
-9 -23 -6 -5 3 -9 -2 -9 -10 0 -8 6 -13 13 -10 8 3 16 1 19 -4 3 -5 -5 -11
-17 -13 -19 -3 -17 -5 7 -6 26 -2 27 -3 10 -11 -11 -5 -14 -9 -7 -9 7 -1 11
-5 7 -10 -3 -5 -1 -12 5 -16 5 -3 11 -1 11 4 5 41 4 57 -3 67 -4 6 -2 11 7 11
8 0 12 -4 9 -9 -3 -4 -1 -8 4 -8 6 0 8 -9 5 -20 -3 -12 0 -20 7 -20 7 0 2 -9
-11 -19 -15 -12 -28 -16 -33 -10 -18 17 -36 9 -36 -16 0 -14 -6 -25 -13 -25
-9 0 -12 -10 -9 -30 5 -33 11 -34 17 -3 2 10 4 20 4 22 1 2 12 -4 25 -12 16
-11 27 -12 34 -5 6 6 12 6 17 -1 3 -6 3 -11 -2 -10 -4 1 -10 0 -13 -1 -21 -8
-40 -6 -40 3 0 7 -5 4 -11 -5 -7 -12 -6 -25 1 -40 9 -19 9 -21 -2 -8 -17 20
-46 27 -30 8 10 -13 2 -41 -12 -39 -25 4 -29 0 -18 -11 7 -7 16 -13 20 -14 4
0 15 -4 25 -9 16 -7 15 -9 -10 -25 -19 -12 -32 -14 -41 -7 -9 7 -24 -2 -54
-33 -24 -25 -44 -38 -46 -31 -3 8 -10 5 -19 -8 -8 -12 -18 -19 -22 -17 -4 3
-8 -1 -8 -9 0 -8 4 -15 9 -15 4 0 8 5 8 11 0 5 5 7 10 4 5 -3 10 -1 10 4 0 6
3 10 8 8 4 -1 18 8 32 21 35 33 45 27 21 -14 -12 -19 -17 -32 -11 -29 5 3 10
1 10 -6 0 -6 -8 -9 -18 -7 -25 7 -24 -16 2 -32 18 -12 19 -11 9 2 -10 12 -10
15 2 15 8 0 15 -4 15 -8 0 -3 9 -9 21 -12 21 -6 18 -27 -4 -27 -7 0 -6 4 3 10
11 7 5 9 -22 8 -25 -1 -38 -6 -38 -15 0 -8 5 -11 13 -7 7 4 7 2 -2 -7 -10 -11
-15 -11 -18 -1 -3 6 -9 12 -14 12 -4 0 -6 -7 -3 -15 4 -11 -1 -15 -17 -16 -22
0 -23 -1 -4 -8 11 -5 23 -4 26 1 3 5 16 4 30 -2 22 -10 23 -10 2 -6 -29 5 -39
-10 -21 -32 28 -32 27 -37 -10 -37 -23 0 -37 -5 -39 -15 -4 -13 -3 -13 6 0 8
12 11 12 17 -3 4 -11 1 -23 -6 -30 -10 -9 -11 -9 -5 2 5 9 4 12 -3 7 -7 -4
-12 -16 -12 -26 0 -14 -5 -18 -16 -13 -11 4 -12 9 -5 16 6 6 11 18 11 26 0 13
-15 7 -15 -7 -1 -4 -11 -25 -24 -47 -12 -22 -20 -32 -17 -23 3 10 0 17 -6 15
-7 -1 -14 7 -16 18 -4 16 -2 17 10 7 23 -18 29 -3 10 25 -16 25 -16 26 8 19
22 -6 22 -5 7 4 -14 9 -22 9 -33 -1 -12 -10 -12 -13 3 -25 17 -12 16 -13 -4
-9 -17 3 -21 0 -16 -13 3 -9 10 -23 16 -29 9 -12 3 -17 -15 -15 -3 1 -12 -5
-18 -13 -9 -11 -10 -15 -1 -15 7 0 9 -5 5 -11 -4 -8 0 -7 15 1 12 6 19 15 16
21 -4 5 4 7 17 5 14 -2 22 -9 21 -20 -2 -9 -4 -24 -5 -33 -2 -10 6 -19 22 -24
23 -6 23 -7 3 -8 -12 -1 -25 4 -28 9 -8 13 -45 -6 -45 -23 0 -8 3 -8 8 -2 4 6
13 10 20 9 6 -1 20 -2 29 -3 14 -1 13 -5 -7 -27 -18 -19 -31 -24 -50 -19 -17
4 -21 3 -11 -3 11 -8 11 -11 0 -16 -8 -3 0 -4 16 -1 17 3 25 2 18 -3 -7 -4
-14 -24 -15 -44 -2 -20 -6 -34 -10 -31 -5 2 -13 -9 -20 -24 -7 -15 -17 -31
-23 -36 -6 -4 -1 -10 13 -13 12 -4 22 -11 22 -16 0 -6 -6 -8 -14 -5 -8 3 -17
1 -20 -6 -3 -9 -5 -9 -5 1 -1 6 -9 12 -18 12 -14 0 -12 -5 8 -26 l24 -27 -27
18 c-25 16 -28 16 -28 1 0 -9 -8 -16 -20 -16 -11 0 -19 -3 -19 -7 4 -22 -2
-33 -13 -27 -10 5 -10 3 0 -7 11 -11 14 -12 21 -1 7 11 9 10 14 -2 4 -9 1 -16
-6 -17 -7 0 -2 -5 11 -12 19 -8 25 -8 33 4 7 11 9 9 9 -9 0 -13 4 -20 10 -17
6 3 13 -1 16 -9 3 -9 10 -14 14 -11 5 3 11 2 14 -3 2 -4 -4 -9 -15 -9 -12 -1
-19 5 -19 15 0 12 -3 13 -12 4 -14 -14 -38 -16 -38 -2 0 5 7 6 17 3 11 -4 14
-3 9 6 -5 7 -14 10 -22 7 -8 -3 -14 -1 -14 5 0 6 -6 6 -17 1 -20 -10 -46 -5
-38 8 3 4 -1 13 -8 18 -10 8 -13 6 -14 -8 -1 -11 3 -22 8 -25 5 -4 7 -11 4
-16 -3 -5 1 -6 9 -3 13 5 15 0 12 -26 -3 -25 1 -34 19 -42 21 -9 22 -12 7 -29
-9 -10 -18 -16 -20 -14 -3 3 1 11 8 20 7 8 8 15 2 15 -5 0 -13 -7 -16 -16 -8
-20 -26 -9 -21 15 2 10 -3 18 -11 18 -8 0 -14 -4 -14 -9 0 -4 5 -8 11 -8 8 0
8 -4 0 -14 -8 -10 -8 -20 2 -39 12 -23 15 -25 29 -11 14 14 16 14 22 -1 3 -9
2 -13 -4 -10 -6 3 -15 3 -21 -1 -8 -4 -8 -9 -1 -13 7 -4 8 -12 1 -21 -7 -12
-10 -11 -15 8 -4 12 -10 22 -15 22 -5 0 -6 7 -3 15 4 8 1 15 -6 15 -6 0 -8 -4
-5 -10 12 -19 -7 -10 -26 12 l-20 23 17 -27 c9 -16 21 -28 26 -28 5 0 6 -5 3
-10 -4 -6 -10 -8 -15 -5 -4 3 -11 -2 -14 -11 -6 -15 -4 -15 19 0 l25 17 -5
-30 c-4 -26 -3 -29 12 -24 10 3 23 10 30 15 8 7 10 3 6 -13 -5 -17 -3 -21 9
-17 11 5 15 -1 15 -23 0 -15 -6 -30 -12 -33 -8 -3 -10 4 -7 21 3 18 1 24 -7
19 -7 -4 -10 -2 -9 5 2 7 -5 15 -14 17 -22 4 -24 -24 -2 -32 8 -3 13 -10 9
-16 -3 -5 -14 -1 -26 11 -24 24 -39 17 -33 -16 2 -13 -1 -27 -8 -31 -8 -5 -9
-1 -5 12 7 18 7 18 -8 0 -8 -11 -15 -27 -15 -36 0 -9 -5 -21 -12 -28 -6 -6 -9
-15 -5 -19 4 -3 13 0 20 9 17 22 48 31 40 12 -3 -8 1 -14 8 -14 8 0 5 -6 -7
-16 -19 -15 -19 -16 1 -9 15 5 17 3 8 -6 -16 -16 -38 -2 -23 16 8 9 8 15 0 20
-5 3 -10 2 -10 -3 0 -5 -10 -14 -22 -21 -13 -6 -15 -9 -5 -7 10 4 17 0 17 -9
0 -18 -5 -18 -32 -4 -15 8 -18 17 -13 37 4 17 3 23 -3 17 -19 -20 -23 -65 -7
-71 8 -4 15 -13 15 -21 0 -13 -2 -13 -17 -2 -15 12 -16 12 -8 -1 8 -13 7 -13
-8 -1 -22 18 -23 -4 -1 -26 15 -15 14 -17 -8 -29 -12 -7 -18 -13 -11 -14 21 0
26 -39 7 -58 -10 -9 -19 -16 -21 -14 -11 9 -29 -1 -29 -17 0 -12 6 -17 18 -13
14 3 17 0 11 -13 -5 -15 -2 -17 17 -12 17 4 20 3 11 -6 -8 -8 -16 -9 -29 0
-14 8 -24 8 -41 -1 -20 -11 -21 -14 -6 -26 13 -11 15 -10 9 4 -3 9 -1 16 5 16
6 0 11 -3 10 -7 -2 -15 13 -53 20 -49 4 3 12 -4 19 -14 10 -16 9 -18 -8 -15
-11 2 -20 2 -20 -1 0 -7 33 -58 42 -64 4 -3 -6 -11 -23 -17 -25 -10 -29 -10
-19 2 6 7 7 15 3 17 -4 3 -2 3 5 2 6 -2 12 0 12 5 0 14 -26 31 -35 23 -5 -4
-5 1 -2 11 6 15 -3 22 -25 18 -13 -2 -9 17 5 22 6 3 2 6 -10 6 -17 1 -21 6
-17 19 5 16 5 16 -6 -1 -6 -9 -8 -23 -4 -30 5 -7 0 -6 -10 3 -11 8 -14 16 -7
18 6 2 11 8 11 14 0 6 -7 4 -17 -3 -9 -8 -19 -13 -22 -11 -3 2 -6 -1 -7 -8 -2
-6 0 -5 3 1 4 8 12 4 23 -10 9 -13 29 -24 44 -24 24 -2 27 -5 22 -29 -3 -16 0
-29 7 -32 7 -3 2 -3 -10 0 -29 7 -30 -12 -2 -21 11 -4 18 -9 16 -12 -8 -8 -47
7 -47 18 0 6 -7 17 -15 25 -8 9 -15 11 -15 5 0 -5 5 -13 10 -16 21 -13 10 -43
-17 -48 l-27 -5 23 17 22 17 -23 0 c-13 0 -26 -4 -30 -10 -9 -13 11 -38 24
-30 6 4 7 -2 3 -16 -5 -15 -4 -20 4 -16 6 4 11 2 11 -4 0 -6 4 -9 9 -6 5 4 7
-8 4 -25 -3 -23 -1 -30 9 -26 7 2 12 11 10 18 -3 11 0 11 12 -1 20 -20 24 -44
9 -46 -7 -1 -18 -2 -24 -3 -5 0 -8 -5 -4 -10 3 -5 1 -12 -5 -16 -6 -4 -7 -11
-4 -17 4 -7 2 -8 -5 -4 -6 4 -8 13 -4 19 4 7 0 6 -10 -2 -23 -18 -21 -28 4
-34 20 -5 23 -31 3 -33 -28 -3 -44 -18 -39 -38 2 -11 2 -15 -1 -8 -3 6 -10 12
-15 12 -6 0 -8 -4 -5 -9 3 -5 -1 -14 -9 -21 -22 -18 -18 -29 7 -23 13 3 20 2
16 -2 -4 -4 -3 -17 3 -29 9 -19 9 -19 -4 -3 -18 21 -24 22 -24 1 0 -9 11 -23
25 -32 21 -14 33 -17 77 -21 6 -1 3 -5 -4 -10 -9 -6 -22 -6 -32 -1 -9 5 -19 6
-23 3 -3 -3 -6 -1 -6 5 0 6 -7 9 -15 5 -9 -3 -15 -2 -13 3 2 5 -1 9 -7 9 -5 0
-9 -3 -7 -7 1 -5 -3 -8 -9 -8 -6 0 -8 8 -4 19 3 10 1 29 -4 42 -7 19 -4 29 12
47 12 13 15 22 8 22 -7 0 -9 5 -4 13 14 22 11 35 -9 41 -14 3 -18 2 -11 -5 18
-18 -5 -87 -31 -92 l-21 -4 22 -2 c17 -1 21 -7 21 -33 -1 -18 1 -40 3 -48 2
-8 -1 -14 -7 -13 -7 1 -10 -6 -7 -17 4 -15 9 -17 24 -10 10 6 21 14 24 20 7
11 35 2 35 -12 0 -6 -8 -4 -18 3 -16 13 -16 12 -3 -4 13 -17 16 -17 26 -4 7
10 16 13 25 7 8 -5 22 -4 34 2 20 11 20 10 6 -7 -8 -10 -10 -16 -3 -12 6 4 15
2 18 -4 4 -5 14 -8 22 -5 9 4 23 1 31 -6 13 -11 14 -11 7 1 -6 11 -4 13 9 8
10 -4 15 -3 11 4 -4 5 -1 18 7 27 12 15 11 16 -4 3 -10 -7 -18 -10 -18 -5 0 5
-4 3 -9 -4 -5 -9 -8 -2 -9 20 0 32 0 32 10 8 9 -24 10 -24 24 -6 15 21 16 19
19 -29 1 -17 6 -29 13 -27 7 1 12 -2 12 -8 0 -5 -5 -10 -12 -10 -6 0 -8 -3 -4
-7 7 -8 66 58 60 68 -2 3 8 4 21 1 14 -2 22 -8 20 -13 -3 -4 -13 -6 -23 -3
-15 5 -15 4 2 -10 10 -8 15 -20 10 -27 -4 -8 -3 -10 4 -5 7 4 12 3 12 -3 0 -5
-6 -12 -12 -14 -10 -4 -10 -6 0 -6 7 -1 19 4 26 11 10 10 9 15 -7 28 -18 15
-18 17 -4 23 11 4 14 2 11 -8 -5 -11 2 -13 28 -11 18 2 40 5 48 7 11 3 15 -4
13 -26 0 -16 1 -24 4 -17 4 10 8 10 21 0 10 -8 13 -9 9 -1 -4 6 -1 14 5 17 7
3 4 4 -7 3 -12 -1 -19 3 -17 12 2 7 -5 22 -14 32 -9 11 -12 19 -7 19 6 0 16
-7 23 -15 7 -8 16 -15 21 -15 11 0 8 22 -4 31 -4 3 6 6 22 6 27 0 29 -2 13
-14 -16 -13 -15 -14 5 -10 15 3 20 1 16 -9 -3 -8 -1 -14 5 -14 22 0 20 43 -4
69 -13 14 -24 30 -23 36 0 5 3 4 6 -2 2 -7 11 -13 19 -13 9 0 12 -4 9 -10 -3
-5 5 -15 19 -22 14 -6 26 -17 26 -24 0 -7 6 -15 13 -17 9 -4 9 -6 0 -6 -7 -1
-13 -6 -13 -13 0 -14 24 7 26 22 1 6 2 14 3 19 0 5 13 8 29 5 15 -2 22 -1 16
3 -6 5 -14 16 -17 27 -6 15 -10 16 -22 6 -8 -7 -15 -11 -16 -9 -6 31 -6 39 2
39 5 0 9 -5 9 -11 0 -5 4 -8 9 -5 13 9 7 51 -8 48 -7 -1 -10 2 -6 8 3 5 1 10
-4 10 -6 0 -11 -5 -11 -12 0 -6 -3 -8 -6 -5 -4 4 -1 13 5 21 11 13 16 12 37
-9 24 -24 51 -35 39 -16 -3 5 3 16 13 23 10 7 19 26 20 42 1 16 7 35 13 43 7
7 9 16 5 20 -3 3 -6 2 -6 -4 0 -6 -7 -14 -16 -17 -11 -4 -15 -2 -11 8 3 7 0
19 -6 25 -9 9 -7 11 8 5 14 -5 17 -4 10 4 -6 6 -28 13 -49 16 -36 5 -63 16
-37 16 7 0 10 4 6 9 -11 18 14 21 27 4 15 -20 64 -31 52 -11 -4 6 -3 8 4 5 13
-9 44 2 37 13 -3 5 -1 12 5 15 8 5 7 11 -1 21 -9 11 -15 11 -25 3 -9 -7 -14
-8 -14 -1 0 9 43 42 54 42 3 0 3 -8 0 -17 -2 -10 4 -1 13 20 11 23 22 35 28
30 5 -4 3 1 -5 11 -10 13 -10 17 -2 12 6 -4 12 -2 12 3 0 6 5 11 10 11 6 0 9
-3 8 -7 0 -5 3 -17 8 -28 9 -21 55 -31 51 -11 -1 6 6 10 15 10 11 -1 14 4 10
14 -4 12 -1 14 12 9 14 -6 16 -3 11 13 -5 15 -3 18 10 14 9 -4 14 -12 11 -20
-3 -7 1 -18 9 -24 10 -8 14 -8 18 2 4 10 8 10 18 -2 8 -9 23 -22 34 -30 l20
-15 -20 24 c-11 13 -19 24 -17 25 2 0 0 9 -4 20 -5 12 -2 22 10 28 9 5 14 13
11 18 -3 5 0 12 6 16 8 4 9 3 5 -4 -4 -7 -1 -12 6 -12 9 0 9 -3 -2 -10 -8 -5
-11 -10 -6 -10 5 0 2 -8 -5 -17 -11 -15 -10 -14 9 1 12 11 22 25 22 33 0 16
16 17 26 1 4 -6 3 -9 -2 -5 -14 8 -33 -39 -22 -55 8 -10 8 -9 4 5 -6 20 19 24
27 5 4 -10 6 -10 6 0 1 6 8 12 17 12 14 0 14 -3 3 -17 -12 -17 -12 -17 5 -1
17 15 21 15 54 -4 24 -13 32 -15 24 -5 -7 8 -9 17 -5 19 4 3 3 3 -4 2 -6 -2
-11 6 -10 17 1 19 17 28 17 8 0 -5 5 -7 10 -4 8 5 7 12 -2 23 -10 14 -10 15 2
4 19 -16 31 -15 24 3 -4 8 -1 15 6 15 6 0 8 -5 4 -12 -5 -7 -2 -9 8 -6 8 4 15
1 15 -7 0 -8 -7 -11 -15 -7 -11 4 -13 1 -7 -8 6 -10 4 -12 -8 -7 -10 3 -17 3
-17 -2 0 -5 9 -11 20 -14 11 -3 20 -1 20 4 0 5 5 9 11 9 5 0 8 -4 4 -9 -3 -6
3 -9 14 -8 20 1 24 16 8 28 -5 3 0 9 11 11 16 4 19 2 15 -10 -4 -10 -2 -13 5
-8 6 3 13 2 16 -3 3 -5 -1 -11 -9 -15 -8 -3 -15 -13 -14 -23 0 -14 2 -15 6 -3
4 8 13 20 21 26 8 6 12 16 8 22 -3 6 -1 14 5 18 8 4 9 3 5 -4 -4 -7 -1 -12 9
-12 9 0 14 4 11 8 -2 4 0 14 6 22 8 12 9 12 4 -2 -9 -28 27 -41 67 -23 15 6
15 10 5 24 -11 14 -11 14 3 3 14 -10 18 -10 23 3 3 9 11 13 18 9 8 -5 9 -2 5
10 -4 10 -3 15 3 11 13 -8 13 -35 -1 -35 -6 0 -8 -8 -4 -19 7 -23 -10 -38 -19
-16 -6 18 -36 9 -36 -11 0 -13 -20 -19 -45 -14 -5 1 -2 -7 8 -18 9 -10 14 -22
10 -26 -4 -4 6 -5 22 -2 17 2 33 5 36 5 4 1 10 9 13 18 6 15 4 15 -14 -2 -15
-14 -20 -15 -20 -4 0 11 -2 11 -9 1 -6 -10 -10 -10 -20 1 -9 12 -4 15 30 20
22 3 50 14 61 24 21 18 21 18 8 -6 -7 -15 -8 -21 -1 -17 18 11 13 -5 -6 -21
-16 -13 -16 -13 5 -3 13 7 21 17 18 25 -2 7 2 16 10 19 9 3 12 10 9 16 -8 13
-3 13 32 -2 15 -6 34 -10 41 -9 6 1 12 -5 12 -14 0 -21 36 -19 45 3 5 14 4 15
-6 5 -18 -18 -30 -16 -22 2 3 9 2 15 -3 13 -5 -1 -19 3 -30 10 -12 6 -24 9
-27 6 -3 -3 -3 3 0 14 3 11 12 23 20 26 8 3 11 10 8 16 -3 6 4 10 17 10 17 0
19 -3 9 -9 -7 -5 -9 -11 -5 -13 5 -3 4 -3 -3 -2 -21 5 -35 -22 -19 -36 9 -6
19 -9 24 -6 17 10 60 -39 57 -66 -2 -21 1 -25 16 -21 10 3 19 10 19 15 0 5 -4
7 -9 3 -5 -3 -12 -1 -16 5 -3 5 0 10 7 10 10 0 10 2 -1 9 -10 7 -11 12 -1 27
7 12 10 13 7 3 -3 -8 3 -20 12 -26 14 -9 20 -7 30 9 12 20 13 20 32 -1 23 -24
31 -27 23 -8 -6 15 38 42 58 35 7 -3 20 -2 29 3 11 5 16 3 16 -7 0 -8 -7 -13
-15 -12 -8 2 -17 -3 -20 -11 -3 -8 0 -11 7 -7 7 5 9 1 5 -8 -11 -30 13 -16 29
15 8 17 17 27 21 21 3 -5 -5 -22 -19 -37 -20 -24 -26 -26 -39 -16 -13 11 -15
8 -14 -21 1 -18 3 -27 5 -20 3 6 9 10 14 6 5 -3 9 0 9 5 0 6 5 11 10 11 7 0 7
-6 0 -20 -10 -18 -8 -19 15 -10 16 6 25 6 25 0 0 -6 -8 -10 -17 -10 -14 0 -15
-2 -5 -9 8 -4 14 -25 16 -45 1 -20 8 -41 16 -46 13 -8 12 -10 -2 -10 -34 0
-13 -34 26 -41 17 -4 16 -7 -12 -36 -27 -30 -32 -49 -5 -22 6 6 19 12 29 13
10 2 19 9 19 17 0 8 4 15 9 16 5 1 12 7 17 15 6 9 8 6 6 -9 -1 -18 -4 -20 -16
-10 -12 10 -14 9 -8 -7 5 -12 1 -26 -9 -37 -9 -10 -13 -23 -9 -28 3 -6 1 -11
-4 -11 -6 0 -11 -9 -11 -20 0 -10 -7 -23 -16 -28 -15 -8 -15 -10 0 -15 12 -5
15 -3 10 5 -5 8 -2 9 10 5 10 -4 20 -7 23 -7 3 0 -1 -8 -8 -17 -12 -16 -12
-17 2 -6 16 13 29 8 29 -9 0 -5 -4 -6 -10 -3 -5 3 -10 2 -10 -3 0 -12 26 -23
34 -15 3 3 1 14 -5 24 -8 15 -6 19 7 19 11 0 14 -5 9 -17 -5 -15 -3 -15 13 2
11 11 17 24 14 29 -3 5 0 6 7 2 9 -6 9 -11 -1 -23 -11 -14 -10 -15 11 -8 16 5
21 4 17 -4 -4 -6 -13 -11 -19 -11 -7 0 -25 -7 -40 -15 -15 -8 -33 -13 -40 -11
-7 1 -9 1 -4 -1 4 -3 5 -8 3 -12 -3 -4 1 -8 9 -8 8 0 15 4 15 8 0 4 8 10 18
14 14 5 15 4 5 -6 -7 -7 -13 -18 -13 -23 0 -6 4 -5 9 3 7 10 13 11 31 1 16 -8
20 -9 15 -1 -6 11 19 10 80 -4 11 -3 5 2 -13 10 -29 14 -31 17 -20 35 17 27
31 25 24 -2 -4 -15 -1 -13 8 6 9 19 15 24 18 15 3 -8 1 -22 -4 -32 -5 -11 -5
-17 2 -17 9 0 14 20 11 47 -1 6 4 15 10 19 8 5 10 2 6 -8 -8 -21 3 -30 20 -17
9 9 13 8 13 0 0 -10 -14 -15 -33 -12 -5 1 -6 -7 -2 -18 3 -11 1 -22 -5 -26 -6
-3 -8 -10 -5 -15 10 -15 -25 -19 -40 -4 -13 14 -15 14 -15 0 0 -9 6 -16 13
-17 6 0 24 -2 40 -4 25 -3 27 -1 21 23 -5 25 -4 26 10 8 8 -10 20 -15 28 -11
7 3 5 0 -6 -9 -18 -15 -18 -15 1 -13 11 0 20 9 20 20 1 12 -3 17 -12 13 -9 -3
-19 4 -26 17 -9 18 -9 20 2 10 7 -7 21 -13 31 -13 10 0 18 -5 18 -12 0 -7 7
-5 18 6 12 14 14 20 4 23 -13 5 -7 23 9 23 6 0 7 -5 3 -12 -5 -8 -2 -9 11 -4
15 5 16 4 5 -8 -6 -9 -10 -21 -7 -28 4 -8 6 -7 6 5 1 22 6 22 41 -5 19 -14 26
-24 19 -29 -7 -4 -7 -9 -1 -12 5 -4 23 9 41 28 l31 34 -23 12 c-12 7 -24 11
-27 10 -2 -1 -6 2 -8 8 -2 6 3 11 12 11 9 0 16 5 16 11 0 6 9 1 21 -12 12 -14
19 -18 16 -8 -3 9 1 16 9 16 17 0 17 1 4 -32 -6 -16 -6 -24 0 -20 5 3 14 -4
20 -15 9 -16 8 -20 -5 -20 -8 0 -15 5 -15 10 0 6 -11 3 -24 -7 -13 -10 -22
-20 -20 -22 2 -2 10 2 19 9 11 9 19 9 28 2 8 -7 18 -7 27 -2 13 8 13 13 1 32
-10 15 -10 23 -3 26 8 2 7 12 -3 33 -14 26 -14 28 0 22 9 -3 14 -8 11 -11 -3
-2 0 -14 6 -26 7 -11 11 -25 10 -29 -1 -5 2 -6 8 -2 6 3 8 11 5 16 -4 5 1 12
10 15 10 4 26 -6 45 -27 16 -19 30 -29 30 -22 0 6 -6 14 -12 16 -8 4 -7 6 4 6
9 1 23 -5 30 -12 15 -14 60 -18 51 -4 -3 5 3 7 13 5 12 -2 18 -11 16 -23 -2
-15 -1 -17 6 -6 8 11 11 10 19 -4 9 -16 10 -16 17 1 4 10 4 15 0 12 -10 -11
-32 15 -26 31 3 9 1 12 -6 7 -15 -9 -15 -1 -2 25 9 16 7 19 -10 19 -11 0 -22
0 -25 0 -3 0 -5 -3 -6 -7 -1 -12 -31 -43 -41 -43 -4 0 -8 5 -8 11 0 5 5 7 10
4 6 -3 10 3 10 14 0 11 5 23 10 26 6 4 8 11 5 16 -4 5 0 9 7 9 8 0 14 9 14 20
0 20 -7 24 -36 21 -13 -2 -13 0 -1 8 8 5 19 7 25 5 7 -3 12 5 13 16 2 18 0 19
-13 5 -18 -17 -34 -20 -34 -5 0 6 6 10 13 10 8 0 7 4 -3 10 -13 8 -13 10 2 10
12 0 15 6 10 22 -5 19 -4 20 10 7 9 -7 14 -17 11 -21 -2 -5 3 -8 11 -8 21 0
16 20 -9 41 -19 16 -20 16 -35 -9 -10 -16 -25 -26 -41 -26 -33 -2 -34 19 0 22
26 2 44 20 35 34 -3 5 -10 5 -16 2 -7 -5 -8 -2 -3 5 5 9 11 9 17 3 6 -6 17 -8
24 -5 27 10 13 21 -26 20 -41 -1 -50 -12 -27 -37 6 -8 2 -6 -10 4 -28 24 -30
46 -3 46 11 0 20 5 20 11 0 8 5 8 15 -1 10 -9 15 -9 15 -1 0 6 -5 11 -11 11
-6 0 -7 6 -2 13 4 7 -3 5 -17 -4 -25 -16 -25 -16 -25 13 0 25 1 26 13 11 15
-21 16 -9 1 18 -8 16 -13 18 -25 8 -11 -9 -14 -8 -14 5 0 10 5 14 10 11 6 -3
10 -1 10 4 0 6 -5 11 -11 11 -5 0 -7 5 -4 10 3 6 1 10 -5 10 -7 0 -10 -7 -7
-15 4 -8 2 -17 -4 -20 -5 -4 -8 6 -7 24 1 16 5 28 9 25 4 -2 12 3 19 11 8 9
21 13 34 10 19 -5 19 -5 3 5 -9 6 -22 8 -27 5 -12 -8 -13 -3 0 29 6 17 6 26 0
26 -6 0 -10 -7 -10 -16 0 -14 -3 -14 -15 -4 -13 11 -13 15 -3 21 10 7 9 9 -4
9 -10 0 -18 -5 -18 -12 0 -25 -22 10 -26 41 -4 31 8 47 26 36 6 -4 4 -15 -6
-30 -8 -13 -11 -25 -7 -28 11 -7 44 18 35 27 -7 7 -8 11 -11 37 0 6 -10 9 -21
6 -18 -5 -24 2 -17 21 1 4 5 6 9 5 4 -2 5 4 2 12 -4 10 -1 14 7 12 8 -2 11 -2
6 0 -4 3 -4 10 0 16 4 7 -2 5 -12 -3 -17 -14 -18 -13 -11 5 6 16 5 18 -5 8
-19 -19 -29 -16 -29 8 0 13 4 18 13 13 10 -6 10 -4 0 7 -7 7 -14 22 -14 33 -1
18 -2 18 -6 3 -2 -9 -8 -15 -13 -12 -5 3 -6 13 -3 22 4 11 3 14 -5 9 -7 -4
-12 -3 -12 2 0 5 -9 19 -20 32 -16 18 -17 25 -8 32 7 4 9 8 4 8 -5 0 -3 7 4
15 7 9 10 18 6 22 -3 4 -13 -2 -22 -13 -8 -10 -12 -13 -8 -5 3 7 0 18 -7 23
-11 8 -10 9 3 4 14 -4 17 1 15 24 -1 17 -5 30 -9 30 -5 0 -8 5 -8 11 0 6 7 9
15 5 22 -8 19 1 -4 14 -18 9 -19 7 -16 -20 2 -18 -1 -30 -7 -30 -6 0 -9 3 -5
6 3 3 2 16 -3 29 -5 13 -6 26 -2 29 3 4 7 14 8 23 2 12 0 13 -9 4 -17 -17 -31
-13 -17 4 9 11 9 15 1 15 -6 0 -14 -6 -17 -14 -3 -7 -17 -13 -32 -13 -15 0
-21 2 -14 4 6 3 12 9 12 14 0 6 -6 7 -12 3 -8 -5 -7 -1 2 10 8 10 23 22 35 26
15 7 16 9 4 9 -22 1 -32 28 -13 35 8 3 14 1 14 -4 0 -5 9 -12 20 -15 11 -3 20
-11 20 -16 0 -6 -4 -8 -8 -5 -5 3 -9 -1 -9 -8 0 -7 6 -13 13 -13 7 0 11 4 8 8
-2 4 0 10 6 14 14 9 12 36 -2 34 -31 -4 -36 2 -33 34 2 17 1 26 -2 19 -4 -10
-9 -9 -19 5 -13 16 -13 15 -4 -9 5 -16 8 -28 7 -29 -1 0 -19 -1 -39 -3 -33 -3
-38 0 -37 18 0 21 1 21 9 1 5 -11 9 -14 9 -7 1 7 6 10 11 7 6 -3 10 -1 10 5 0
6 5 8 10 5 6 -3 10 -4 10 -1 0 3 -10 10 -21 17 -17 9 -20 8 -14 -2 5 -8 4 -10
-3 -5 -7 4 -12 14 -12 22 0 8 -4 12 -10 9 -5 -3 -10 -1 -10 4 0 6 4 11 10 11
5 0 8 6 6 13 -1 6 -1 9 1 5 9 -16 19 -7 20 20 1 15 -1 21 -4 15 -9 -25 -30
-14 -27 15 1 15 2 37 3 50 1 13 5 20 11 17 6 -4 7 -12 3 -18 -4 -7 0 -6 10 2
13 11 17 11 17 1 0 -8 3 -10 6 -7 11 10 -15 35 -34 33 -9 -2 -20 -14 -23 -27
-7 -25 -10 -22 -13 9 -1 9 -5 22 -9 29 -5 7 1 13 15 17 13 2 6 4 -14 2 -21 -1
-39 2 -41 8 -2 5 -9 6 -16 2 -9 -6 -9 -11 0 -22 6 -7 15 -11 20 -8 5 3 6 -2 3
-10 -7 -19 7 -21 25 -3 10 10 11 9 5 -6 -3 -9 1 -28 10 -42 11 -17 13 -26 4
-31 -7 -5 -8 -3 -3 6 6 10 4 12 -9 7 -10 -4 -15 -3 -11 3 3 6 1 10 -5 10 -7 0
-10 7 -6 15 3 8 2 15 -2 15 -10 0 -37 -43 -34 -53 1 -5 -2 -6 -8 -2 -8 5 -8
11 -1 19 6 7 7 17 3 21 -4 5 -1 5 6 1 6 -4 12 -3 12 3 0 5 -6 12 -12 14 -10 4
-9 6 1 6 10 1 9 7 -4 28 -18 26 -17 27 3 41 28 18 28 32 1 32 -11 0 -17 -4
-14 -10 3 -5 1 -10 -4 -10 -19 0 -12 22 9 27 15 4 17 9 10 23 -6 10 -10 21
-10 24 0 9 24 2 32 -9 4 -5 8 0 8 12 0 17 -5 21 -24 17 -17 -3 -25 1 -29 16
-3 11 -12 20 -20 20 -16 0 -17 24 -2 37 4 4 5 3 1 -4 -7 -13 9 -26 39 -30 10
-2 22 -8 26 -14 4 -7 9 -4 12 6 4 9 3 14 -2 11 -10 -7 -33 18 -26 28 3 3 -1 2
-7 -4 -19 -16 -30 -12 -23 10 4 13 2 20 -5 18 -15 -4 -20 21 -9 47 7 18 8 18
8 2 1 -10 5 -16 11 -12 5 3 6 13 3 23 -6 14 -4 15 8 5 12 -10 15 -8 15 8 0 23
-5 23 -30 4 -23 -17 -40 -20 -31 -5 3 6 1 10 -4 10 -6 0 -3 9 6 20 13 14 19
16 25 7 6 -9 8 -9 8 1 0 16 -33 29 -38 14 -4 -13 -32 -4 -32 10 0 6 7 8 15 4
8 -3 15 -1 15 4 0 6 -4 10 -10 10 -5 0 -10 9 -10 21 0 16 4 20 18 15 15 -5 15
-4 -2 8 -10 8 -15 19 -11 25 5 10 -7 15 -27 12 -5 0 -8 4 -8 9 0 6 6 10 13 10
25 0 36 21 25 46 -6 13 -15 25 -20 25 -4 1 -14 2 -20 3 -7 1 -19 -2 -25 -7 -7
-5 -13 -6 -13 -1 0 5 -4 2 -10 -6 -6 -9 -5 -17 3 -22 18 -11 29 -10 21 4 -4 7
-3 8 4 4 7 -4 12 -2 12 3 0 6 5 11 11 11 5 0 7 -4 4 -10 -3 -5 0 -7 8 -4 17 6
31 -22 16 -32 -5 -3 -16 -1 -24 6 -18 15 -66 -15 -58 -36 3 -8 9 -11 14 -8 5
3 7 9 4 14 -3 5 0 12 6 15 6 4 13 -2 16 -15 3 -12 11 -19 19 -16 10 4 13 -4
12 -33 -1 -34 -3 -37 -15 -25 -8 8 -20 11 -26 7 -6 -4 -8 0 -4 10 4 11 1 17
-7 17 -8 0 -17 7 -20 16 -3 8 -10 13 -15 10 -5 -3 -15 2 -22 12 -13 15 -12 16
4 3 15 -12 17 -11 17 7 0 16 -5 20 -17 16 -14 -4 -14 -2 2 8 21 14 28 31 27
61 0 9 4 17 9 17 6 0 8 -4 4 -9 -3 -5 -1 -12 5 -16 6 -3 10 4 10 16 0 12 7 30
16 40 10 11 12 19 5 24 -6 3 -11 -2 -11 -12 0 -14 -2 -15 -9 -4 -6 9 -11 10
-15 2 -4 -6 -4 -15 -1 -21 3 -5 -3 -10 -14 -10 -14 0 -19 -5 -15 -15 4 -8 1
-15 -4 -15 -6 0 -9 9 -7 21 4 19 1 20 -30 15 -29 -6 -35 -4 -35 11 0 13 3 14
8 6 6 -9 17 -10 39 -4 17 5 35 6 39 3 4 -4 4 -2 1 5 -4 6 -17 9 -30 7 -12 -2
-17 -2 -10 2 7 3 9 13 6 22 -4 15 -3 15 6 2 6 -8 11 -13 12 -10 0 3 2 13 4 23
2 9 -1 15 -6 11 -5 -3 -9 0 -9 5 0 6 4 11 10 11 6 0 6 9 0 24 -6 17 -4 30 8
47 15 23 15 23 -3 9 -17 -14 -18 -13 -12 3 4 10 7 21 7 23 0 3 6 2 13 -2 9 -6
9 -5 0 8 -7 8 -11 18 -8 21 3 4 2 4 -2 1 -5 -3 -8 -9 -9 -12 -4 -40 -63 -89
-72 -62 -2 6 -8 8 -12 5 -5 -3 -8 4 -7 15 1 17 4 18 12 8 15 -19 45 -19 38 0
-4 10 -2 13 5 8 7 -4 12 -2 12 3 0 14 -13 14 -26 1 -7 -7 -10 -1 -10 19 0 22
4 28 15 24 9 -3 6 4 -8 16 -13 12 -19 21 -15 21 5 0 3 4 -4 9 -11 6 -9 9 6 13
16 4 19 2 15 -11 -4 -14 -3 -14 6 -1 9 12 11 13 11 1 0 -8 3 -11 7 -8 3 4 -2
16 -12 27 -17 18 -14 25 9 21 5 -1 4 4 -2 12 -7 8 -9 17 -5 20 3 4 1 7 -6 7
-7 0 -11 -6 -8 -14 6 -15 -6 -29 -35 -39 -12 -4 -18 -1 -18 8 0 8 3 14 8 14
19 -3 25 2 12 11 -12 8 -13 12 -2 19 11 7 11 9 -2 14 -11 5 -18 -3 -25 -26 -9
-31 -9 -31 -10 -5 -1 15 4 30 9 33 6 4 8 11 5 16 -4 5 1 9 10 9 9 0 13 -5 9
-11 -4 -7 1 -10 12 -7 11 2 19 8 19 13 0 6 4 17 10 25 7 12 6 13 -6 4 -21 -16
-91 -12 -97 6 -5 13 -3 13 13 0 17 -14 18 -13 11 4 -7 20 -7 20 15 0 22 -19
22 -19 11 2 -6 12 -8 24 -5 28 3 3 -6 6 -21 6 -19 0 -25 -4 -20 -12 5 -7 -5
-3 -20 10 -30 23 -52 29 -41 12 3 -5 2 -10 -4 -10 -5 0 -13 5 -16 10 -3 6 -1
10 4 10 6 0 11 7 11 16 0 14 2 14 16 -1 13 -13 19 -13 31 -3 20 16 41 19 50 6
3 -7 1 -8 -5 -4 -7 4 -12 1 -12 -8 0 -13 3 -14 18 -5 20 13 25 36 8 36 -25 -1
-76 16 -76 25 0 6 7 7 16 4 9 -3 12 -2 9 5 -4 6 -13 8 -21 5 -8 -3 -14 -1 -14
4 0 6 9 10 19 10 11 0 23 5 27 12 4 7 3 8 -4 4 -7 -4 -12 -1 -12 6 0 8 -3 9
-8 3 -9 -13 -35 -19 -28 -6 8 12 -11 24 -24 16 -7 -4 -7 -12 0 -25 7 -13 6
-21 -4 -30 -12 -9 -13 -7 -9 10 4 13 -1 26 -12 34 -17 12 -17 13 -1 19 11 5
15 3 10 -5 -4 -7 -3 -8 5 -4 17 11 4 25 -20 21 -17 -4 -19 -2 -9 10 10 12 10
15 -1 15 -9 0 -10 3 -3 8 17 11 -3 70 -26 77 -11 4 -20 10 -20 15 0 5 -7 7
-15 4 -8 -4 -15 -1 -15 4 0 19 20 23 41 9 12 -9 34 -13 56 -10 19 3 33 1 30
-4 -3 -5 3 -9 14 -9 10 0 19 3 19 7 0 10 -57 22 -70 14 -5 -3 -10 1 -10 9 0 9
7 13 20 11 27 -5 36 14 15 33 -10 10 -15 11 -11 5 12 -22 -5 -36 -20 -16 -11
14 -13 15 -8 2 6 -20 -26 -35 -37 -17 -4 6 -3 21 2 32 10 20 10 20 -5 2 -9
-10 -13 -23 -10 -27 3 -5 2 -9 -3 -10 -45 -4 -59 -6 -68 -9 -25 -7 -71 13 -72
31 -2 20 12 26 22 9 9 -15 25 -2 18 16 -3 8 -8 13 -10 10 -3 -3 -17 0 -31 5
-22 8 -23 8 -12 -6 10 -12 10 -15 0 -15 -9 0 -9 -4 -3 -12 6 -7 9 -23 8 -35
-1 -12 2 -20 7 -17 4 3 8 0 8 -7 0 -6 -8 -9 -19 -6 -12 3 -22 -1 -26 -10 -4
-12 0 -14 15 -10 11 3 20 0 20 -6 0 -7 -11 -13 -25 -13 -14 -1 -23 2 -20 6 3
4 -2 10 -10 14 -8 3 -17 1 -21 -5 -4 -7 -10 -6 -19 1 -10 8 -14 7 -18 -2 -4
-8 -6 -7 -6 5 -1 9 4 17 10 17 8 0 7 5 -2 16 -12 15 -14 14 -23 -5 -8 -19 -13
-22 -31 -21 -3 1 -13 -6 -22 -15 -8 -9 -18 -13 -21 -10 -4 3 -1 10 7 14 9 6 7
10 -8 14 -12 3 -21 1 -21 -5 0 -5 -3 -7 -8 -4 -4 2 -15 -2 -25 -9 -11 -7 -14
-16 -8 -19 5 -4 12 -2 16 4 3 5 14 10 23 9 12 0 11 -3 -5 -9 -13 -5 -23 -14
-23 -20 0 -6 -4 -8 -10 -5 -5 3 -10 -1 -10 -9 0 -19 -50 -17 -73 3 -8 6 -20
10 -27 9 -7 -2 -14 3 -15 10 -2 7 -1 8 1 3 3 -6 12 -7 21 -4 8 3 19 0 23 -7
12 -20 57 -21 65 -3 3 9 1 20 -6 23 -6 4 -10 11 -9 16 1 5 -4 10 -11 13 -8 2
-10 -2 -6 -13 4 -9 2 -16 -2 -16 -5 0 -11 6 -14 14 -7 18 22 31 37 16 5 -5 17
-10 25 -10 11 0 10 3 -4 14 -16 11 -17 17 -7 29 10 11 9 17 -3 27 -20 16 -20
44 0 36 9 -3 15 0 15 8 0 16 -22 16 -38 0z m357 -77 c6 -8 8 -16 5 -20 -3 -3
4 -10 15 -17 17 -9 21 -8 21 4 0 10 -6 13 -15 10 -11 -5 -13 -2 -9 10 5 14 9
14 22 4 13 -11 15 -10 9 5 -4 11 -1 17 9 17 12 0 13 -4 4 -21 -14 -25 -12 -28
28 -31 24 -2 29 -5 20 -15 -12 -15 -32 -18 -23 -4 3 6 -7 9 -22 8 -23 -2 -27
-7 -25 -26 2 -15 0 -21 -7 -16 -6 3 -9 11 -6 16 4 5 1 9 -4 9 -6 0 -11 -4 -11
-10 0 -5 -5 -10 -10 -10 -6 0 -5 8 2 20 11 17 8 24 -17 50 -21 21 -24 30 -13
30 9 0 21 -6 27 -13z m-483 -26 c-9 -10 -13 -21 -9 -24 3 -4 1 -7 -5 -7 -15 0
-15 13 0 28 9 9 9 12 -2 12 -13 0 -13 1 0 9 22 15 33 1 16 -18z m-36 -16 c0
-8 -4 -15 -10 -15 -5 0 -10 7 -10 15 0 8 5 15 10 15 6 0 10 -7 10 -15z m337
-9 c0 -15 -21 -16 -34 -1 -4 4 -2 5 5 1 6 -4 12 -2 12 3 0 6 4 11 8 11 5 0 9
-6 9 -14z m68 -15 c-3 -6 -11 -9 -16 -6 -5 4 -9 -2 -9 -12 0 -15 -2 -16 -10
-3 -9 15 7 33 22 24 4 -3 8 0 8 7 0 7 3 10 6 6 3 -3 3 -11 -1 -16z m115 15 c0
-3 -4 -8 -10 -11 -5 -3 -10 -1 -10 4 0 6 5 11 10 11 6 0 10 -2 10 -4z m-646
-17 c-7 -12 -41 -16 -41 -5 0 6 10 11 23 11 12 0 20 -3 18 -6z m101 1 c3 -6
-1 -7 -9 -4 -18 7 -21 14 -7 14 6 0 13 -4 16 -10z m521 -33 c-2 -7 -5 -5 -5 5
-1 11 -6 15 -15 12 -8 -3 -17 0 -22 7 -5 9 -2 10 9 6 10 -4 17 -1 17 6 0 7 5
4 11 -6 6 -10 8 -23 5 -30z m-586 29 c0 -2 -7 -7 -16 -10 -8 -3 -12 -2 -9 4 6
10 25 14 25 6z m45 -14 c-3 -3 -11 0 -18 7 -9 10 -8 11 6 5 10 -3 15 -9 12
-12z m79 10 c2 -4 0 -14 -6 -22 -8 -12 -9 -12 -4 3 7 21 -10 23 -18 2 -3 -8
-10 -15 -16 -15 -5 0 -2 9 7 20 19 21 29 25 37 12z m620 -8 c3 -8 2 -12 -4 -9
-6 3 -10 10 -10 16 0 14 7 11 14 -7z m-224 -4 c0 -5 -4 -10 -10 -10 -5 0 -10
5 -10 10 0 6 5 10 10 10 6 0 10 -4 10 -10z m-520 -14 c0 -2 -9 -6 -20 -9 -11
-3 -18 -1 -14 4 5 9 34 13 34 5z m724 -21 c5 0 11 -6 14 -13 3 -11 0 -12 -16
-3 -12 6 -24 16 -28 23 -5 7 -3 8 7 2 8 -5 18 -9 23 -9z m-778 -20 c-2 -16
-26 -44 -26 -31 0 9 19 46 24 46 3 0 3 -7 2 -15z m814 -65 c0 -5 -2 -10 -4
-10 -3 0 -8 5 -11 10 -3 6 -1 10 4 10 6 0 11 -4 11 -10z m-805 -18 c-3 -3 -11
0 -18 7 -9 10 -8 11 6 5 10 -3 15 -9 12 -12z m880 -12 c10 -11 13 -20 7 -20
-6 0 -16 9 -22 20 -6 11 -9 20 -7 20 2 0 12 -9 22 -20z m-925 0 c0 -5 -2 -10
-4 -10 -3 0 -8 5 -11 10 -3 6 -1 10 4 10 6 0 11 -4 11 -10z m892 -22 c-3 -14
-7 -16 -12 -8 -4 7 -13 16 -20 20 -7 5 -3 8 13 8 19 0 23 -5 19 -20z m-862 -3
c-7 -9 -15 -13 -19 -10 -3 3 1 10 9 15 21 14 24 12 10 -5z m-35 -30 c-1 -35
-15 -63 -15 -32 0 10 -6 17 -12 17 -9 0 -8 3 2 10 8 5 16 14 16 20 5 35 11 25
9 -15z m-26 -31 c9 -9 -45 -3 -59 6 -11 8 -5 9 20 5 19 -3 36 -8 39 -11z m981
-26 c0 -12 -6 -9 -26 13 -19 22 -19 22 4 8 12 -8 22 -17 22 -21z m-62 5 c-12
-15 -22 -18 -14 -4 4 5 0 11 -6 14 -7 3 -3 4 9 4 17 -1 19 -4 11 -14z m-944
-43 c5 -1 12 4 16 10 4 7 8 0 8 -15 0 -22 -2 -25 -10 -12 -4 9 -14 14 -22 11
-7 -3 -19 3 -27 12 -13 16 -12 16 6 7 11 -6 24 -12 29 -13z m993 6 c0 -8 -8
-11 -21 -8 -19 5 -19 6 0 13 10 4 19 8 20 8 0 1 1 -5 1 -13z m43 4 c12 -7 10
-9 -8 -7 -12 0 -22 5 -22 9 0 11 12 10 30 -2z m-45 -40 c4 -6 -1 -7 -11 -3
-11 4 -15 3 -10 -5 3 -6 2 -13 -3 -16 -7 -5 -8 11 -2 32 2 6 21 1 26 -8z
m-988 -35 c0 -8 -4 -12 -9 -9 -5 3 -6 10 -3 15 9 13 12 11 12 -6z m988 -25 c3
-5 1 -10 -4 -10 -6 0 -11 5 -11 10 0 6 2 10 4 10 3 0 8 -4 11 -10z m45 0 c0
-5 -2 -10 -4 -10 -3 0 -8 5 -11 10 -3 6 -1 10 4 10 6 0 11 -4 11 -10z m-638
-17 c-6 -2 -9 -10 -6 -15 4 -7 2 -8 -5 -4 -13 9 -5 26 12 25 9 0 8 -2 -1 -6z
m73 -3 c3 -5 1 -10 -4 -10 -6 0 -11 5 -11 10 0 6 2 10 4 10 3 0 8 -4 11 -10z
m575 -10 c18 -12 2 -12 -25 0 -13 6 -15 9 -5 9 8 0 22 -4 30 -9z m-486 -8 c2
-4 -4 -8 -14 -8 -10 0 -16 4 -14 8 3 4 9 8 14 8 5 0 11 -4 14 -8z m507 -25
l-23 -22 17 28 c10 15 20 25 23 22 3 -3 -5 -16 -17 -28z m-578 16 c-7 -2 -13
-12 -13 -20 0 -9 -3 -14 -6 -10 -10 10 4 37 18 36 10 0 10 -2 1 -6z m141 -9
c3 -8 2 -12 -4 -9 -6 3 -10 10 -10 16 0 14 7 11 14 -7z m-279 -4 c3 -6 -1 -7
-9 -4 -18 7 -21 14 -7 14 6 0 13 -4 16 -10z m96 -3 c-6 -8 -9 -16 -6 -19 3 -3
-3 -11 -12 -19 -16 -13 -17 -12 -4 4 7 9 10 17 6 17 -4 0 -2 7 5 15 7 8 15 15
17 15 3 0 0 -6 -6 -13z m89 -24 c0 -22 3 -25 10 -13 7 12 9 10 7 -7 -1 -16 -5
-19 -16 -14 -16 9 -25 61 -10 61 5 0 9 -12 9 -27z m79 -27 c-3 -24 1 -46 9
-45 4 1 14 1 22 0 13 -1 13 -2 0 -11 -9 -6 -19 -5 -28 3 -11 9 -13 7 -10 -9 2
-13 -3 -20 -19 -22 -17 -2 -23 -10 -23 -27 0 -18 4 -23 15 -19 20 8 19 -6 -2
-22 -25 -19 -32 -17 -26 6 3 11 1 20 -4 20 -5 0 -10 -11 -11 -25 -1 -22 2 -25
28 -25 21 0 30 -5 30 -16 0 -8 5 -12 10 -9 6 4 8 15 5 26 -5 14 -3 17 9 13 18
-7 19 -4 10 21 -6 13 -9 14 -16 3 -8 -11 -9 -11 -6 0 2 8 8 13 13 13 6 0 15 8
20 17 6 9 17 18 25 20 10 2 7 -4 -7 -18 -26 -24 -30 -45 -8 -36 8 3 15 1 15
-4 0 -6 -4 -10 -10 -10 -12 0 -9 -22 5 -32 5 -4 14 -3 20 2 6 5 17 5 25 -2 13
-8 12 -9 -2 -5 -9 3 -19 3 -23 -1 -11 -12 -29 -8 -43 8 -12 13 -13 13 -8 -2 3
-10 0 -18 -6 -18 -6 0 -8 -3 -5 -7 10 -10 67 -11 67 -1 0 4 5 8 11 8 8 0 8 -5
-1 -15 -7 -8 -9 -15 -6 -15 4 0 0 -7 -8 -16 -9 -8 -16 -25 -17 -37 0 -12 -2
-30 -4 -39 -3 -15 0 -16 16 -8 10 6 19 18 19 26 0 8 -4 12 -10 9 -5 -3 -10 -1
-10 5 0 7 6 10 14 7 7 -3 20 0 27 6 11 10 11 9 1 -4 -7 -10 -11 -28 -8 -42 3
-19 1 -24 -10 -20 -16 6 -46 -15 -39 -27 3 -5 0 -12 -7 -17 -24 -14 -37 -11
-35 8 1 10 5 19 10 19 4 0 5 5 1 11 -3 6 0 15 7 20 11 7 12 9 1 9 -8 0 -16 -9
-19 -20 -4 -16 -9 -18 -18 -10 -11 9 -11 5 -3 -24 14 -45 37 -54 59 -24 10 12
15 27 12 32 -3 5 -2 6 4 3 9 -6 10 -24 4 -60 0 -5 -5 -6 -10 -2 -5 3 -12 1
-16 -5 -4 -6 -11 -7 -17 -4 -7 4 -8 2 -4 -5 4 -6 12 -9 17 -6 5 4 9 0 9 -7 0
-9 3 -9 10 2 8 12 14 10 41 -15 18 -17 29 -24 25 -17 -5 7 -1 12 10 12 14 0
15 -3 6 -12 -16 -16 -15 -55 1 -62 6 -3 1 -3 -12 0 -15 4 -21 2 -17 -4 3 -6 0
-13 -6 -16 -7 -4 -4 -5 7 -3 15 3 27 -7 44 -34 14 -21 34 -39 45 -41 21 -3 31
-39 11 -37 -5 0 -9 6 -7 13 1 8 -10 12 -32 12 -22 -1 -32 -5 -29 -13 3 -8 -3
-13 -13 -13 -14 0 -16 -2 -6 -9 11 -6 10 -11 -3 -25 -9 -9 -12 -16 -5 -16 6 0
16 11 22 25 12 26 30 34 27 13 -3 -26 1 -39 11 -33 6 4 8 16 4 27 -4 14 -2 18
5 14 17 -11 14 -56 -4 -56 -8 0 -15 -6 -15 -13 0 -17 36 -38 55 -31 10 4 15 0
15 -13 0 -26 -10 -35 -25 -23 -9 7 -14 6 -18 -4 -5 -12 1 -14 28 -12 22 3 36
-1 39 -11 4 -10 10 -11 25 -3 13 7 22 7 26 0 3 -5 -3 -10 -14 -10 -11 0 -22
-4 -26 -9 -3 -6 3 -8 14 -6 11 2 26 -4 33 -13 11 -15 11 -16 -4 -4 -11 9 -18
10 -23 2 -8 -13 -35 5 -35 24 0 17 -67 19 -74 1 -6 -16 14 -16 27 0 6 6 10 6
14 -3 2 -6 8 -10 12 -8 4 3 5 -9 2 -27 -4 -26 -6 -28 -9 -9 -2 12 -8 22 -13
22 -6 0 -7 -9 -4 -20 4 -13 2 -20 -7 -20 -10 0 -10 -3 1 -9 8 -5 22 -6 30 -2
9 4 30 4 46 1 22 -5 26 -9 15 -14 -9 -3 -27 -5 -40 -4 -18 2 -24 -1 -21 -12 2
-8 4 -22 5 -31 0 -9 6 -15 13 -12 6 3 9 11 7 18 -3 7 0 16 7 20 7 5 10 3 7 -6
-3 -8 2 -19 11 -26 13 -10 14 -14 3 -25 -11 -11 -12 -10 -7 7 4 12 3 15 -2 9
-4 -7 -17 -13 -27 -15 -19 -4 -19 -5 -2 -21 10 -10 13 -18 8 -18 -5 0 -12 -9
-15 -20 -3 -11 -1 -20 4 -20 5 0 9 -5 9 -11 0 -6 -9 -8 -20 -4 -15 5 -18 3
-14 -9 3 -8 12 -12 19 -10 11 5 12 0 2 -25 -11 -31 -27 -42 -27 -19 0 11 -14
2 -16 -10 -3 -23 -19 -42 -34 -42 -11 0 -22 -4 -25 -10 -9 -15 -50 -5 -50 13
0 8 -4 19 -8 23 -4 4 -7 2 -7 -4 0 -7 -9 -12 -21 -12 -11 0 -17 -4 -14 -10 3
-5 1 -10 -4 -10 -6 0 -11 5 -11 11 0 5 -4 8 -8 5 -4 -2 -8 4 -8 15 0 19 1 20
14 2 13 -15 14 -15 9 -1 -3 9 -3 19 1 21 4 2 2 2 -5 1 -7 -2 -15 1 -18 6 -4 6
4 10 17 10 34 0 49 13 38 30 -8 13 -10 12 -10 -2 0 -11 -7 -16 -20 -15 -11 1
-20 5 -20 10 0 4 -4 6 -9 3 -5 -3 -7 -19 -6 -36 2 -20 -2 -29 -9 -27 -6 2 -10
12 -8 22 3 17 2 17 -13 1 -20 -20 -26 -20 -19 -2 3 8 1 17 -5 21 -7 4 -8 0 -4
-11 4 -11 3 -15 -5 -10 -6 3 -14 1 -18 -5 -4 -8 -3 -9 4 -5 7 4 12 2 12 -3 0
-6 -8 -11 -17 -11 -11 0 -14 -3 -7 -8 6 -4 14 -16 18 -27 4 -11 4 -16 0 -12
-4 4 -14 -2 -21 -13 -8 -11 -18 -18 -23 -15 -5 3 -11 1 -15 -4 -8 -14 -35 -2
-35 15 0 8 5 14 10 14 6 0 10 -7 10 -17 0 -15 1 -15 18 0 10 10 22 14 26 10 4
-5 5 8 2 28 -3 24 0 43 9 55 8 10 15 23 15 29 0 5 -7 -1 -16 -13 -13 -19 -18
-21 -32 -10 -12 10 -14 10 -8 0 4 -7 1 -15 -8 -18 -9 -3 -16 -11 -16 -16 0 -6
7 -5 15 2 9 7 18 10 22 6 3 -3 1 -6 -6 -6 -8 0 -9 -5 -1 -19 7 -13 7 -22 0
-26 -6 -3 -10 4 -10 16 0 18 -2 19 -15 9 -15 -12 -16 -11 -19 10 -1 12 -16 14
-17 3 0 -5 -9 -11 -20 -15 -11 -4 -18 -11 -15 -16 2 -4 -4 -8 -14 -8 -23 0
-32 17 -19 37 7 11 9 11 9 -3 0 -10 5 -18 11 -18 5 0 7 5 3 12 -4 6 -3 8 4 4
15 -9 22 7 8 19 -15 14 -35 13 -45 -4 -11 -17 -45 -6 -35 11 5 10 4 10 -6 1
-10 -9 -7 -16 14 -35 20 -18 24 -26 15 -38 -9 -13 -10 -13 -6 2 8 24 -19 44
-38 28 -20 -17 -19 -31 3 -23 9 3 14 3 10 -1 -3 -4 -17 -9 -31 -10 -28 -3 -31
16 -6 36 13 11 11 17 -13 40 -27 26 -27 26 -35 5 -11 -34 -12 -48 -3 -42 4 3
10 -2 14 -10 7 -20 -30 -40 -41 -22 -11 19 -50 28 -50 11 0 -7 4 -11 8 -8 4 2
11 0 14 -6 4 -6 3 -10 -2 -9 -20 4 -24 -2 -12 -18 8 -9 9 -14 2 -10 -6 4 -13
1 -16 -5 -2 -7 -4 1 -4 17 0 17 -2 37 -4 45 -3 10 3 15 16 15 11 0 21 8 23 17
2 9 9 16 15 14 7 -1 9 -1 4 1 -4 3 -5 9 -1 14 3 5 -1 9 -8 9 -9 0 -9 3 2 10
10 6 -4 8 -45 6 -33 -2 -53 -2 -45 1 8 3 23 15 33 27 18 20 19 20 13 1 -5 -17
-4 -18 7 -5 6 8 18 16 26 18 12 3 12 0 1 -12 -7 -10 -8 -16 -2 -16 6 0 14 5
17 11 4 6 17 14 29 18 18 7 42 75 162 467 77 252 145 458 150 457 6 -1 11 4
11 12 0 8 -4 12 -8 10 -11 -7 -19 23 -12 42 4 10 2 14 -4 10 -9 -6 -28 45 -24
66 0 4 -4 7 -10 7 -7 0 -10 12 -7 28 2 18 -1 29 -8 29 -8 0 -9 -11 -3 -38 10
-43 8 -89 -3 -89 -4 0 -6 -8 -6 -17 1 -17 -26 -118 -57 -208 -7 -22 -23 -74
-35 -115 -12 -41 -34 -115 -50 -165 -37 -120 -80 -263 -82 -272 0 -5 -9 -33
-20 -63 -11 -30 -21 -62 -23 -70 -16 -73 -21 -80 -42 -59 -8 8 -13 8 -18 0 -3
-6 -3 -11 2 -10 19 3 27 -2 14 -10 -18 -11 -43 -3 -34 12 3 5 2 7 -3 4 -6 -3
-15 3 -22 13 -9 14 -9 21 0 26 7 4 8 3 4 -4 -4 -7 -2 -12 4 -12 7 0 10 6 7 13
-2 6 -11 11 -21 9 -9 -2 -16 4 -16 13 0 9 -4 14 -8 11 -4 -2 -14 0 -22 6 -12
8 -12 9 2 4 11 -3 26 3 37 15 18 20 18 20 14 -4 -3 -16 1 -26 11 -30 17 -7 18
13 1 26 -6 4 -4 11 5 17 8 5 11 10 5 11 -5 0 -18 2 -27 4 -10 2 -18 -2 -18 -8
0 -5 -3 -7 -7 -4 -3 4 -11 2 -18 -3 -8 -7 -12 -5 -12 5 0 8 4 12 9 9 5 -3 6 7
3 23 -5 24 -4 25 4 6 7 -16 16 -20 32 -16 20 6 21 7 4 19 -20 15 -10 38 14 29
13 -5 14 -4 4 6 -7 7 -13 22 -13 32 0 15 5 18 23 13 17 -4 24 -1 24 10 0 8 -6
13 -13 10 -8 -3 -10 3 -6 17 5 20 4 20 -11 8 -9 -7 -17 -11 -17 -8 0 3 -3 12
-6 21 -9 22 12 20 36 -4 11 -11 20 -15 20 -8 0 6 10 23 23 36 12 14 16 22 8
17 -11 -6 -13 -4 -8 9 4 10 3 15 -3 11 -6 -3 -10 -1 -10 4 0 6 7 11 15 11 8 0
15 3 15 6 0 11 -28 33 -34 27 -3 -4 -6 0 -6 8 -1 10 -5 8 -17 -6 -12 -16 -14
-16 -10 -3 3 10 -1 24 -9 33 -9 9 -11 15 -4 15 6 0 8 5 5 10 -6 10 13 15 48
12 9 -1 17 3 17 8 0 6 -4 10 -10 10 -5 0 -10 5 -10 10 0 18 19 10 25 -11 9
-27 -12 -50 -25 -29 -8 12 -11 13 -22 2 -11 -11 -9 -17 11 -33 12 -10 28 -16
34 -12 6 4 3 9 -8 13 -18 6 -17 7 3 12 11 3 23 1 26 -6 2 -6 5 -3 5 7 1 14 7
17 24 13 15 -4 13 -2 -5 6 -16 7 -28 15 -28 20 0 11 14 10 27 -3 6 -6 17 -9
25 -6 8 3 4 8 -12 15 -14 6 -19 11 -12 11 9 1 8 8 -4 26 -16 24 -11 31 19 26
14 -2 7 17 -9 23 -9 3 -12 11 -8 18 5 8 2 9 -10 5 -15 -6 -14 -3 4 22 18 27
60 40 60 19 0 -4 6 -8 13 -8 6 1 -1 11 -17 24 -23 19 -25 23 -10 22 20 -1 24
4 24 30 0 9 -6 14 -12 11 -7 -2 -12 -10 -10 -17 1 -6 -3 -10 -10 -7 -7 2 -12
10 -10 16 1 7 -2 10 -7 7 -5 -3 -11 1 -15 9 -3 8 -1 17 5 20 5 4 6 11 3 17 -4
7 -2 8 5 4 9 -6 9 -11 1 -21 -8 -9 -6 -14 9 -18 24 -6 31 0 32 27 0 21 1 21 9
1 8 -18 9 -18 9 -2 1 10 6 15 11 12 6 -4 8 -11 4 -16 -10 -18 -12 -59 -1 -59
5 0 7 9 4 20 -4 14 0 20 11 20 10 0 13 3 7 8 -5 4 -10 13 -11 20 -2 29 -5 33
-15 26 -6 -3 -4 5 6 19 12 19 13 27 4 33 -8 5 -10 3 -4 -7 7 -11 6 -12 -6 -3
-8 6 -22 10 -32 9 -10 -2 -14 1 -10 8 4 6 0 8 -10 4 -10 -3 -17 -3 -17 2 0 18
15 20 32 4 10 -9 18 -11 18 -5 0 11 18 11 38 -1 19 -13 14 3 -12 34 -13 15
-27 25 -30 21 -4 -3 -4 2 0 13 5 13 9 15 12 6 4 -11 6 -11 13 0 7 10 8 9 7 -6
-2 -11 2 -22 7 -23 19 -7 35 -24 29 -33 -3 -5 2 -6 11 -2 9 3 13 9 8 12 -4 3
-9 12 -11 20 -3 12 0 12 12 2 12 -10 14 -9 9 8 -3 13 -1 21 8 21 7 0 9 3 6 6
-4 4 -13 1 -22 -6 -13 -11 -14 -10 -9 3 3 10 -2 20 -15 27 -14 7 -21 7 -21 0
0 -5 7 -10 15 -10 13 0 14 -4 4 -22 -12 -23 -13 -23 -21 9 -5 21 -13 30 -22
27 -7 -3 -13 2 -13 11 0 18 27 21 27 3 1 -8 6 -5 15 5 7 11 12 27 10 38 -3 13
2 19 16 19 10 0 19 -5 19 -11 0 -5 -4 -8 -9 -4 -5 3 -13 0 -17 -6 -5 -8 -3 -9
7 -4 12 8 12 6 0 -8 -9 -11 -10 -17 -2 -17 6 0 11 -8 12 -17 0 -12 2 -13 6 -5
3 7 10 10 17 5 7 -4 4 0 -7 9 -21 20 -14 46 8 28 9 -7 16 -6 26 6 12 15 11 16
-9 10 -13 -5 -22 -3 -22 3 0 6 9 11 20 11 11 0 20 4 20 9 0 5 -12 8 -27 5 -20
-3 -24 -2 -14 5 8 5 30 8 49 6 21 -2 30 0 22 5 -22 14 -4 60 24 60 14 0 27 -6
29 -12 3 -8 6 -6 6 5 1 9 -4 17 -11 17 -6 0 -8 3 -5 7 7 6 57 -35 57 -47 0 -3
-7 -15 -15 -26 -11 -13 -15 -14 -13 -4 2 8 0 16 -5 18 -16 5 -27 1 -27 -10 0
-6 3 -9 6 -5 4 3 14 -2 23 -11 9 -10 15 -16 14 -13 -4 6 18 31 28 31 5 0 5 -7
2 -17 -4 -11 -3 -14 5 -9 16 9 15 33 0 39 -8 3 -6 6 5 6 12 1 17 -7 17 -25 0
-14 4 -23 10 -19 6 4 7 11 4 17 -4 6 -1 14 6 18 18 11 3 30 -18 23 -14 -5 -13
-2 3 11 11 10 13 14 5 10 -8 -4 -12 -4 -8 1 4 4 2 15 -5 23 -9 11 -4 10 16 -3
15 -9 27 -23 26 -29z m481 34 c0 -5 -4 -10 -10 -10 -5 0 -10 5 -10 10 0 6 5
10 10 10 6 0 10 -4 10 -10z m-1210 -26 c0 -8 -7 -17 -16 -21 -13 -5 -12 -10 8
-31 18 -21 19 -24 3 -12 -32 24 -35 33 -18 53 16 17 16 17 -2 11 -17 -7 -18
-6 -5 8 17 18 30 14 30 -8z m490 -8 c0 -2 -7 -7 -16 -10 -8 -3 -12 -2 -9 4 6
10 25 14 25 6z m295 -6 c3 -6 -1 -7 -9 -4 -18 7 -21 14 -7 14 6 0 13 -4 16
-10z m-340 -10 c-3 -5 -1 -10 5 -10 6 0 8 -5 4 -11 -4 -8 -9 -7 -15 2 -12 19
-11 29 2 29 5 0 7 -4 4 -10z m64 -7 c-12 -15 -12 -16 6 -9 16 6 17 5 8 -5 -17
-17 -53 -22 -53 -7 0 6 3 8 7 5 3 -4 12 2 20 13 8 11 17 20 20 20 3 0 -1 -8
-8 -17z m-476 -7 c6 -16 -2 -28 -14 -20 -12 7 -11 34 0 34 5 0 11 -6 14 -14z
m410 -20 c22 -17 22 -25 -2 -19 -11 3 -22 11 -25 19 -7 17 4 17 27 0z m348 -9
c-10 -9 -11 -8 -5 6 3 10 9 15 12 12 3 -3 0 -11 -7 -18z m405 0 c4 -4 -2 -7
-14 -7 -11 0 -23 4 -26 8 -6 10 30 9 40 -1z m49 -6 c3 -5 1 -12 -5 -16 -5 -3
-10 1 -10 9 0 18 6 21 15 7z m28 -11 c3 -11 1 -20 -4 -20 -5 0 -9 9 -9 20 0
11 2 20 4 20 2 0 6 -9 9 -20z m-553 -30 c0 -5 -7 -10 -15 -10 -8 0 -15 5 -15
10 0 6 7 10 15 10 8 0 15 -4 15 -10z m545 -10 c-3 -5 -12 -10 -18 -10 -7 0 -6
4 3 10 19 12 23 12 15 0z m-444 -14 c5 3 9 0 9 -6 0 -15 -23 -7 -26 8 -1 7 0
8 3 2 2 -5 9 -8 14 -4z m-834 -12 c-3 -3 -12 -4 -19 -1 -8 3 -5 6 6 6 11 1 17
-2 13 -5z m13 -35 c0 -5 -4 -9 -10 -9 -5 0 -10 7 -10 16 0 8 5 12 10 9 6 -3
10 -10 10 -16z m367 -11 c-3 -8 -6 -5 -6 6 -1 11 2 17 5 13 3 -3 4 -12 1 -19z
m-377 -26 c0 -13 -12 -22 -22 -16 -10 6 -1 24 13 24 5 0 9 -4 9 -8z m863 -27
c-7 -21 -12 -19 -10 4 0 11 5 18 9 15 4 -3 5 -11 1 -19z m-913 3 c0 -4 -7 -8
-15 -8 -8 0 -15 4 -15 8 0 5 7 9 15 9 8 0 15 -4 15 -9z m876 -26 c-15 -15 -15
-15 -4 10 7 15 15 23 17 17 2 -6 -4 -18 -13 -27z m422 13 c-3 -3 -9 2 -12 12
-6 14 -5 15 5 6 7 -7 10 -15 7 -18z m46 -25 c-6 -5 -24 21 -24 34 0 6 6 1 14
-10 8 -10 12 -21 10 -24z m-1312 11 c-4 -10 -7 -11 -10 -3 -2 7 -9 9 -14 6 -6
-4 -8 -3 -5 3 10 16 36 11 29 -6z m-53 -12 c-7 -4 -17 -5 -22 -2 -5 3 -3 9 4
14 7 4 17 5 22 2 5 -3 3 -9 -4 -14z m-46 -36 c-10 -8 -13 -12 -8 -10 6 3 10
-5 10 -17 l0 -23 -28 21 c-29 21 -31 41 -4 41 8 0 19 3 23 7 4 4 11 5 16 2 5
-3 1 -13 -9 -21z m1387 12 c0 -8 -2 -15 -4 -15 -2 0 -6 7 -10 15 -3 8 -1 15 4
15 6 0 10 -7 10 -15z m-1359 -22 c-12 -20 -14 -14 -5 12 4 9 9 14 11 11 3 -2
0 -13 -6 -23z m430 0 c12 -16 12 -17 -2 -6 -9 7 -19 10 -22 6 -4 -3 -7 -1 -7
5 0 17 16 15 31 -5z m544 7 c3 -5 1 -10 -4 -10 -6 0 -11 5 -11 10 0 6 2 10 4
10 3 0 8 -4 11 -10z m-500 -18 c-3 -3 -11 0 -18 7 -9 10 -8 11 6 5 10 -3 15
-9 12 -12z m-530 -21 c3 -5 1 -12 -5 -16 -5 -3 -10 1 -10 9 0 18 6 21 15 7z
m1010 -21 c-3 -5 -12 -10 -18 -10 -7 0 -6 4 3 10 19 12 23 12 15 0z m-30 -30
c3 -5 1 -10 -4 -10 -6 0 -11 5 -11 10 0 6 2 10 4 10 3 0 8 -4 11 -10z m-918
-32 c-3 -7 -5 -2 -5 12 0 14 2 19 5 13 2 -7 2 -19 0 -25z m409 20 c5 -7 3 -8
-6 -3 -10 6 -12 4 -7 -8 3 -10 2 -17 -3 -17 -11 0 -13 23 -3 33 9 9 11 9 19
-5z m-429 -14 c-3 -3 -12 -4 -19 -1 -8 3 -5 6 6 6 11 1 17 -2 13 -5z m1003 1
c0 -2 -7 -8 -15 -15 -12 -10 -15 -10 -15 2 0 8 7 15 15 15 8 0 15 -1 15 -2z
m474 -11 c4 -9 13 -14 21 -10 8 3 15 1 15 -5 0 -7 -10 -9 -27 -5 -26 7 -26 7
-9 -19 17 -25 16 -25 -3 -13 -11 7 -18 14 -16 16 2 3 0 12 -5 22 -9 17 -4 30
11 30 4 0 10 -7 13 -16z m-514 -15 c0 -15 -18 -19 -23 -6 -3 8 1 14 9 14 8 0
14 -4 14 -8z m67 -9 c1 -11 -2 -20 -6 -20 -5 0 -11 9 -14 20 -3 12 0 20 7 20
6 0 12 -9 13 -20z m-1026 -23 c-10 -9 -11 -8 -5 6 3 10 9 15 12 12 3 -3 0 -11
-7 -18z m389 -9 c0 -5 -7 -3 -15 6 -8 8 -15 18 -15 22 0 3 7 1 15 -6 8 -7 15
-17 15 -22z m-448 5 c-6 -3 -10 -9 -6 -14 3 -5 0 -8 -7 -7 -6 2 -14 -3 -17
-11 -2 -8 -1 -11 4 -9 5 3 18 2 29 -3 21 -8 22 -7 -27 -13 -6 0 -12 -9 -14
-19 -4 -28 -11 -30 -17 -7 -3 11 -1 20 5 20 6 0 7 7 4 16 -6 15 44 68 54 57 3
-3 -1 -8 -8 -10z m428 -44 c0 -5 -4 -9 -10 -9 -5 0 -10 7 -10 16 0 8 5 12 10
9 6 -3 10 -10 10 -16z m666 -46 c-10 -10 -16 -13 -12 -6 3 6 -4 19 -16 29 -15
11 -17 14 -5 11 10 -4 17 -1 17 5 0 7 7 5 17 -5 16 -16 16 -18 -1 -34z m-1061
27 c-3 -5 -12 -10 -18 -10 -7 0 -6 4 3 10 19 12 23 12 15 0z m1535 -1 c3 7 7
-2 7 -20 0 -31 0 -31 -14 -7 l-13 23 2 -24 c2 -13 -3 -25 -10 -27 -7 -1 -8 0
-3 2 6 4 7 14 1 30 -7 17 -7 23 0 19 6 -3 10 0 11 7 0 10 2 10 6 -1 4 -9 7
-10 13 -2z m-1140 -24 c-7 -9 -15 -13 -19 -10 -3 3 1 10 9 15 21 14 24 12 10
-5z m-448 -27 c-7 -7 -12 -8 -12 -2 0 14 12 26 19 19 2 -3 -1 -11 -7 -17z
m498 2 c0 -4 -6 -10 -14 -13 -12 -5 -14 2 -7 31 2 7 21 -10 21 -18z m-80 -11
c0 -5 -4 -9 -8 -9 -5 0 -9 7 -9 15 0 8 4 12 9 9 4 -3 8 -9 8 -15z m710 11 c-8
-5 -19 -10 -25 -10 -5 0 -3 5 5 10 8 5 20 10 25 10 6 0 3 -5 -5 -10z m27 -12
c-3 -8 -6 -5 -6 6 -1 11 2 17 5 13 3 -3 4 -12 1 -19z m-1187 -8 c0 -5 -5 -10
-11 -10 -5 0 -7 5 -4 10 3 6 8 10 11 10 2 0 4 -4 4 -10z m1170 0 c0 -5 -5 -10
-11 -10 -5 0 -7 5 -4 10 3 6 8 10 11 10 2 0 4 -4 4 -10z m480 -44 c-7 -7 -14
-6 -22 3 -11 10 -9 11 6 5 16 -6 17 -5 7 17 -12 23 -11 23 3 5 11 -13 13 -23
6 -30z m-1596 20 c-3 -8 -13 -17 -22 -21 -13 -5 -13 -2 3 15 21 24 26 25 19 6z
m-42 -34 c3 -11 0 -19 -7 -19 -7 0 -10 9 -7 21 4 20 4 20 -12 -1 -10 -13 -21
-23 -26 -23 -5 0 1 11 13 24 24 27 32 26 39 -2z m1673 -1 c3 -5 1 -12 -4 -15
-5 -3 -11 1 -15 9 -6 16 9 21 19 6z m-481 -21 c-6 -6 -15 -5 -24 1 -13 9 -12
10 3 5 9 -3 17 0 17 6 0 6 3 8 7 5 4 -4 2 -12 -3 -17z m446 0 c0 -4 -7 -11
-16 -14 -13 -5 -14 -4 -6 7 7 8 8 18 4 22 -4 5 -1 5 6 1 6 -4 12 -11 12 -16z
m-1730 -37 c0 -22 -2 -25 -10 -13 -13 20 -13 40 0 40 6 0 10 -12 10 -27z m37
7 c-1 -11 -6 -21 -12 -24 -15 -5 -15 27 -1 36 15 10 15 10 13 -12z m502 -31
c13 -18 19 -29 12 -25 -6 4 -11 2 -11 -3 0 -6 -4 -11 -9 -11 -6 0 -8 9 -6 20
2 11 0 22 -6 25 -8 6 -13 25 -6 25 2 0 14 -14 26 -31z m706 14 c-2 -10 -4 -21
-4 -25 -2 -14 -21 -9 -21 5 0 11 19 37 26 37 1 0 1 -8 -1 -17z m-1201 -28 c-4
-8 -11 -12 -16 -9 -6 4 -5 10 3 15 19 12 19 11 13 -6z m30 -9 c-3 -8 -13 -17
-22 -21 -13 -5 -13 -2 3 15 21 24 26 25 19 6z m436 10 c0 -3 -4 -8 -10 -11 -5
-3 -10 -1 -10 4 0 6 5 11 10 11 6 0 10 -2 10 -4z m777 -21 c0 -8 -4 -12 -9 -9
-5 3 -6 10 -3 15 9 13 12 11 12 -6z m-1329 -32 c0 -10 1 -24 3 -32 2 -7 -2
-16 -10 -18 -10 -4 -11 1 -6 18 4 17 3 20 -3 10 -6 -8 -12 -9 -16 -3 -3 6 -2
13 4 17 6 4 8 11 5 16 -4 5 1 9 9 9 8 0 14 -8 14 -17z m1347 -3 c3 -5 1 -10
-4 -10 -6 0 -11 5 -11 10 0 6 2 10 4 10 3 0 8 -4 11 -10z m-832 -7 c-7 -2 -19
-2 -25 0 -7 3 -2 5 12 5 14 0 19 -2 13 -5z m-483 -64 c0 -6 -4 -7 -10 -4 -5 3
-10 11 -10 16 0 6 5 7 10 4 6 -3 10 -11 10 -16z m1294 -11 c-5 -8 -2 -9 9 -5
9 3 19 2 21 -2 3 -5 -4 -8 -16 -7 -22 1 -39 26 -18 26 6 0 8 -5 4 -12z m517
-4 c2 2 12 -4 21 -13 16 -16 16 -17 -4 -18 -11 -1 -18 1 -15 4 4 3 -2 13 -11
22 -10 9 -13 13 -7 9 7 -4 14 -6 16 -4z m-1380 -21 c-12 -20 -14 -14 -5 12 4
9 9 14 11 11 3 -2 0 -13 -6 -23z m-441 -3 c0 -17 -2 -19 -14 -8 -14 13 -12 28
5 28 5 0 9 -9 9 -20z m1390 -28 c0 -4 -11 -8 -24 -8 -14 0 -22 4 -20 8 3 4 14
8 25 8 10 0 19 -4 19 -8z m477 -39 c-3 -10 -5 -4 -5 12 0 17 2 24 5 18 2 -7 2
-21 0 -30z m-492 5 c5 4 5 1 1 -6 -6 -10 -11 -10 -22 -1 -8 6 -14 14 -14 16 0
3 6 0 13 -6 8 -6 18 -7 22 -3z m-25 -48 c-6 -11 -13 -20 -16 -20 -3 0 -2 4 1
10 3 5 0 7 -8 4 -8 -3 -18 0 -23 7 -5 8 -2 11 8 7 8 -4 21 -2 29 3 20 13 21
11 9 -11z m47 -37 c1 -22 0 -24 -6 -9 -5 13 -10 16 -14 8 -9 -13 -47 -12 -47
2 0 5 -7 1 -15 -10 -16 -19 -16 -19 -13 1 2 13 12 20 31 22 15 1 27 -3 27 -8
0 -6 5 -7 11 -3 6 3 8 15 6 26 -4 14 -2 16 7 9 6 -5 12 -22 13 -38z m525 25
c-7 -7 -12 -8 -12 -2 0 14 12 26 19 19 2 -3 -1 -11 -7 -17z m-1452 -40 c0 -6
-6 -5 -15 2 -8 7 -15 14 -15 16 0 2 7 1 15 -2 8 -4 15 -11 15 -16z m-54 -13
c-1 -8 -5 -17 -8 -21 -5 -4 -4 16 1 34 3 9 9 -1 7 -13z m84 5 c0 -5 -5 -10
-11 -10 -5 0 -7 5 -4 10 3 6 8 10 11 10 2 0 4 -4 4 -10z m43 -37 c-3 -7 -9
-10 -14 -8 -4 3 -18 -4 -29 -15 -27 -27 -38 -19 -13 9 10 12 19 26 19 31 1 6
2 12 3 15 0 3 10 0 20 -7 10 -6 17 -17 14 -25z m815 28 c8 -4 13 -12 13 -17
-1 -5 3 -9 8 -9 5 0 13 -3 17 -7 4 -5 -5 -8 -19 -8 -15 0 -26 3 -26 8 4 21 -3
32 -18 32 -17 -1 -17 -1 -1 -11 9 -5 15 -16 12 -23 -3 -8 2 -25 10 -39 15 -21
15 -26 2 -36 -13 -11 -15 -9 -11 8 2 11 -2 27 -10 35 -8 7 -11 17 -7 21 4 4 0
5 -8 3 -16 -3 -21 21 -7 40 11 14 26 15 45 3z m-1408 -21 c0 -5 -2 -10 -4 -10
-3 0 -8 5 -11 10 -3 6 -1 10 4 10 6 0 11 -4 11 -10z m540 -5 c-14 -16 -25 -21
-16 -6 4 5 0 12 -6 14 -7 3 -2 6 11 6 20 1 21 -1 11 -14z m1493 -32 c-3 -7 -6
-13 -8 -13 -2 0 -5 6 -8 13 -3 8 1 14 8 14 7 0 11 -6 8 -14z m-2050 -23 c7 0
6 -4 -3 -10 -8 -5 -19 -10 -25 -10 -5 0 -4 4 3 9 11 7 11 9 -2 14 -9 4 -16 11
-16 17 0 6 7 4 16 -4 8 -9 21 -16 27 -16z m487 21 c0 -6 -4 -13 -10 -16 -5 -3
-10 1 -10 9 0 9 5 16 10 16 6 0 10 -4 10 -9z m37 3 c-3 -3 -12 -4 -19 -1 -8 3
-5 6 6 6 11 1 17 -2 13 -5z m136 -18 c6 -15 -6 -38 -19 -35 -22 4 -34 -2 -35
-18 -1 -17 -2 -17 -6 0 -3 10 -10 14 -16 11 -7 -4 -8 -3 -4 2 5 5 13 10 18 10
5 1 14 2 19 3 6 0 10 8 10 17 0 9 -5 12 -12 8 -6 -4 -8 -3 -5 2 9 15 45 14 50
0z m732 3 c11 -17 0 -20 -21 -4 -17 13 -17 14 -2 15 9 0 20 -5 23 -11z m-819
-28 c-9 -10 -16 -24 -16 -32 -1 -10 -4 -9 -11 4 -6 9 -15 14 -21 11 -7 -4 -8
-2 -4 4 4 6 14 8 22 5 10 -4 17 2 21 16 3 11 10 18 15 15 5 -3 3 -13 -6 -23z
m-66 4 c-5 -7 -6 -16 -2 -21 4 -4 -1 -2 -10 5 -20 15 -17 28 6 28 11 0 13 -4
6 -12z m846 -10 c-1 -19 -3 -22 -11 -12 -5 8 -16 12 -22 10 -23 -8 -14 7 10
17 12 5 23 9 23 9 1 1 1 -10 0 -24z m134 15 c0 -5 -5 -10 -11 -10 -5 0 -7 5
-4 10 3 6 8 10 11 10 2 0 4 -4 4 -10z m-735 -11 c10 -15 -1 -23 -20 -15 -9 3
-13 10 -10 16 8 13 22 13 30 -1z m630 2 c3 -5 1 -12 -5 -16 -5 -3 -10 1 -10 9
0 18 6 21 15 7z m-273 -23 c14 -21 14 -23 -7 -23 -12 0 -30 10 -39 23 -16 21
-16 22 7 22 15 0 31 -9 39 -22z m943 10 c14 -6 25 -16 25 -21 0 -5 -7 -4 -15
3 -10 9 -15 9 -15 1 0 -6 -5 -11 -12 -11 -6 0 -8 3 -5 7 4 3 2 12 -4 20 -14
16 -8 16 26 1z m-2146 -23 c28 9 27 -3 -1 -14 -15 -5 -27 -2 -40 11 -24 24
-23 36 1 14 13 -11 27 -15 40 -11z m91 21 c0 -2 -9 -6 -20 -9 -11 -3 -18 -1
-14 4 5 9 34 13 34 5z m1431 -36 c5 0 9 -5 9 -10 0 -6 -11 -3 -25 6 -14 9 -25
21 -25 26 0 5 7 2 16 -6 8 -9 20 -16 25 -16z m-901 5 c0 -2 -7 -5 -15 -9 -9
-3 -15 0 -15 9 0 9 6 12 15 9 8 -4 15 -7 15 -9z m794 9 c9 -3 13 -10 10 -15
-8 -14 -21 -11 -28 6 -6 17 -4 18 18 9z m-740 -19 c-4 -8 -1 -22 6 -30 9 -10
9 -15 1 -15 -6 0 -11 4 -11 9 0 5 -10 7 -22 4 -19 -4 -20 -3 -8 6 8 6 11 11 7
11 -9 0 15 29 25 30 4 0 5 -7 2 -15z m586 11 c0 -2 -7 -7 -16 -10 -8 -3 -12
-2 -9 4 6 10 25 14 25 6z m65 -11 c20 -10 23 -13 7 -9 -13 3 -29 0 -37 -6 -10
-9 -15 -9 -15 -2 0 7 -7 9 -17 5 -15 -6 -16 -5 -3 10 18 20 27 20 65 2z m849
-3 c3 -5 -1 -9 -9 -9 -8 0 -12 4 -9 9 3 4 7 8 9 8 2 0 6 -4 9 -8z m-2110 -10
c3 -5 -1 -9 -9 -9 -8 0 -12 4 -9 9 3 4 7 8 9 8 2 0 6 -4 9 -8z m926 -2 c-8 -5
-19 -10 -25 -10 -5 0 -3 5 5 10 8 5 20 10 25 10 6 0 3 -5 -5 -10z m173 -10 c3
-11 1 -18 -4 -14 -5 3 -9 12 -9 20 0 20 7 17 13 -6z m42 10 c-3 -5 -14 -10
-23 -9 -14 0 -13 2 3 9 27 11 27 11 20 0z m175 -15 c0 -20 -20 -29 -33 -16 -9
9 -8 10 7 5 16 -6 17 -4 11 16 -5 15 -4 20 4 16 6 -4 11 -13 11 -21z m-1379
-8 c-10 -9 -11 -8 -5 6 3 10 9 15 12 12 3 -3 0 -11 -7 -18z m1329 -12 c0 -5
-5 -3 -10 5 -5 8 -10 20 -10 25 0 6 5 3 10 -5 5 -8 10 -19 10 -25z m90 25 c0
-5 -5 -10 -11 -10 -5 0 -7 5 -4 10 3 6 8 10 11 10 2 0 4 -4 4 -10z m-1460 -10
c5 9 9 9 14 1 4 -6 2 -11 -3 -11 -6 0 -11 -7 -11 -16 0 -8 5 -12 10 -9 6 3 10
-1 10 -9 0 -24 -14 -26 -40 -5 -14 11 -17 17 -8 13 14 -5 16 -1 13 23 -2 15
-1 22 2 14 4 -10 7 -10 13 -1z m970 5 c0 -2 -6 -8 -13 -14 -10 -8 -14 -7 -14
2 0 8 6 14 14 14 7 0 13 -1 13 -2z m210 1 c0 -11 -19 -15 -25 -6 -3 5 1 10 9
10 9 0 16 -2 16 -4z m-1095 -28 c6 -4 2 -8 -7 -8 -10 0 -18 7 -18 17 0 9 3 12
8 7 4 -5 12 -12 17 -16z m2106 -2 c-9 -11 -9 -15 1 -19 8 -4 7 -6 -4 -6 -18
-1 -24 19 -11 32 13 13 25 7 14 -7z m43 -18 c-5 -17 -3 -20 10 -15 10 4 15 3
11 -3 -3 -6 -2 -10 4 -10 6 0 8 -7 5 -15 -4 -8 -2 -15 3 -15 6 0 15 -10 21
-22 6 -13 11 -17 11 -10 1 6 6 12 13 12 9 0 9 -3 0 -12 -7 -7 -12 -19 -12 -28
0 -8 -10 -21 -21 -29 -18 -10 -19 -15 -8 -22 12 -7 12 -9 0 -9 -10 0 -11 -3
-2 -13 10 -13 6 -27 -9 -27 -15 0 -4 79 14 99 11 12 16 22 13 22 -4 1 -12 2
-19 3 -6 0 -13 14 -15 31 -5 34 -20 47 -48 39 -16 -4 -17 -3 -5 5 8 6 16 16
16 23 3 27 4 29 14 23 6 -4 8 -16 4 -27z m-2171 -4 c-7 -3 -9 -13 -6 -22 6
-14 5 -15 -9 -2 -16 15 -7 31 17 29 6 0 5 -3 -2 -5z m-37 -54 c0 -23 -11 -27
-19 -6 -3 8 -1 17 6 20 7 2 12 5 12 5 1 1 1 -8 1 -19z m2167 5 c-3 -9 -8 -14
-10 -11 -3 3 -2 9 2 15 9 16 15 13 8 -4z m35 -8 c8 -10 6 -13 -11 -14 -12 0
-16 1 -9 4 6 3 10 9 6 14 -8 14 2 11 14 -4z m-2255 -14 c-5 -13 -3 -15 13 -9
14 5 16 4 7 -5 -6 -6 -16 -8 -22 -5 -14 9 -15 36 -1 36 5 0 6 -8 3 -17z m-26
-9 c-3 -3 -12 -4 -19 -1 -8 3 -5 6 6 6 11 1 17 -2 13 -5z m2304 -21 c13 -16
12 -17 -3 -4 -17 13 -22 21 -14 21 2 0 10 -8 17 -17z m-2224 -19 c3 -8 0 -21
-6 -27 -9 -9 -11 -8 -5 7 4 11 2 21 -7 27 -10 6 -11 9 -1 9 7 0 15 -7 19 -16z
m2207 8 c3 -5 -1 -9 -9 -9 -8 0 -12 4 -9 9 3 4 7 8 9 8 2 0 6 -4 9 -8z m-7
-44 c-3 -8 -6 -5 -6 6 -1 11 2 17 5 13 3 -3 4 -12 1 -19z m118 12 c3 -5 -1
-10 -9 -10 -8 0 -18 5 -21 10 -3 6 1 10 9 10 8 0 18 -4 21 -10z m-2375 -10 c0
-5 -7 -10 -15 -10 -8 0 -15 5 -15 10 0 6 7 10 15 10 8 0 15 -4 15 -10z m2335
-10 c3 -5 1 -10 -4 -10 -6 0 -11 5 -11 10 0 6 2 10 4 10 3 0 8 -4 11 -10z
m-2322 -41 c-4 -15 -8 -17 -14 -8 -6 11 4 28 18 29 0 0 -1 -9 -4 -21z m2351
13 c3 -5 -1 -9 -9 -9 -8 0 -12 4 -9 9 3 4 7 8 9 8 2 0 6 -4 9 -8z m-1757 -31
c-2 -10 -8 -26 -15 -33 -6 -8 -8 -19 -4 -23 4 -5 1 -5 -6 -1 -10 6 -10 11 -1
22 7 9 8 14 1 14 -6 0 -14 -4 -17 -10 -8 -13 -25 -13 -25 1 0 5 4 8 9 4 6 -3
15 4 21 15 6 11 15 18 21 15 5 -4 9 -1 9 4 0 6 2 11 5 11 3 0 4 -9 2 -19z
m229 7 c4 -7 3 -8 -4 -4 -7 4 -12 1 -12 -6 0 -8 -3 -9 -8 -3 -13 19 -35 17
-28 -2 6 -14 4 -15 -5 -6 -6 6 -9 15 -6 20 8 13 55 14 63 1z m108 -3 c-4 -8
-8 -15 -10 -15 -2 0 -4 7 -4 15 0 8 4 15 10 15 5 0 7 -7 4 -15z m131 6 c-9 -8
-36 -10 -30 -2 2 4 11 8 20 8 8 0 13 -3 10 -6z m302 -6 c0 -8 -4 -12 -9 -9 -5
3 -6 10 -3 15 9 13 12 11 12 -6z m133 -1 c0 -8 -5 -12 -10 -9 -6 4 -8 11 -5
16 9 14 15 11 15 -7z m75 4 c5 4 5 1 1 -6 -6 -10 -11 -10 -22 -1 -8 6 -14 14
-14 16 0 3 6 0 13 -6 8 -6 18 -7 22 -3z m94 -14 c-6 -8 -15 -12 -18 -8 -3 4 0
9 7 11 6 3 9 10 6 15 -4 7 -2 8 5 4 9 -6 9 -11 0 -22z m-925 -1 c4 -10 4 -14
0 -10 -4 4 -13 -1 -20 -11 -10 -13 -12 -14 -11 -2 3 15 16 40 22 40 1 0 6 -8
9 -17z m506 3 c-7 -7 -14 -6 -21 1 -9 9 -7 12 9 10 14 -1 18 -5 12 -11z m1075
5 c-3 -5 -1 -12 4 -16 5 -3 14 3 20 12 10 17 10 17 11 1 0 -10 -3 -18 -7 -19
-5 0 -18 -2 -30 -3 -18 -2 -20 0 -12 16 5 10 12 18 15 18 3 0 3 -4 -1 -9z
m-1644 -24 c-6 -6 -7 -17 -1 -27 13 -24 -36 -85 -56 -69 -8 6 -14 20 -14 30 0
19 1 19 27 2 26 -17 27 -17 20 1 -4 10 -3 24 3 31 8 9 6 14 -5 19 -14 5 -20
-5 -16 -27 1 -5 -3 -6 -8 -2 -6 3 -8 12 -4 20 4 11 1 13 -11 9 -9 -3 -13 -10
-10 -15 3 -5 0 -9 -5 -9 -15 0 -14 17 1 26 6 4 23 8 37 9 14 1 25 7 24 13 -2
6 4 9 13 5 10 -4 12 -9 5 -16z m279 3 c6 -11 8 -20 6 -20 -3 0 -10 9 -16 20
-6 11 -8 20 -6 20 3 0 10 -9 16 -20z m45 10 c-3 -5 -12 -10 -18 -10 -7 0 -6 4
3 10 19 12 23 12 15 0z m90 -19 c-6 -5 -25 10 -25 20 0 5 6 4 14 -3 8 -7 12
-15 11 -17z m132 -23 c-3 -7 -5 -2 -5 12 0 14 2 19 5 13 2 -7 2 -19 0 -25z
m299 20 c4 -7 3 -8 -4 -4 -7 4 -12 3 -12 -3 0 -6 -8 -7 -17 -4 -17 7 -15 8 24
22 1 1 5 -4 9 -11z m111 -10 c-3 -8 -6 -5 -6 6 -1 11 2 17 5 13 3 -3 4 -12 1
-19z m-717 -14 c5 -1 15 -2 20 -3 6 0 10 -8 10 -17 0 -10 -4 -12 -12 -7 -14 8
-19 10 -45 12 -16 1 -16 3 -3 11 11 7 11 10 2 10 -7 0 -10 5 -6 11 4 8 9 7 15
-2 4 -8 13 -15 19 -15z m287 11 c0 -8 -4 -12 -9 -9 -4 3 -8 9 -8 15 0 5 4 9 8
9 5 0 9 -7 9 -15z m351 -18 c-7 -14 -13 -17 -16 -9 -6 19 6 44 18 37 7 -4 6
-14 -2 -28z m-798 13 c-20 -13 -33 -13 -25 0 3 6 14 10 23 10 15 0 15 -2 2
-10z m-285 -19 c-1 -9 2 -21 7 -28 12 -15 1 -53 -15 -53 -7 0 -6 -4 3 -11 13
-9 13 -9 0 -7 -9 2 -16 -1 -17 -7 0 -5 3 -9 8 -7 5 1 9 -5 9 -13 0 -8 0 -18 1
-22 0 -4 -4 -9 -10 -11 -7 -2 -8 3 -4 14 4 11 3 15 -4 11 -6 -4 -13 2 -16 13
-3 11 -1 23 4 26 5 3 7 10 3 15 -3 5 -1 8 4 7 6 -2 9 2 9 7 -1 6 -8 9 -17 7
-9 -2 -6 3 7 12 26 19 24 52 -3 48 -14 -2 -15 0 -6 6 20 14 40 10 37 -7z m55
15 c0 -3 -4 -8 -10 -11 -5 -3 -10 -1 -10 4 0 6 5 11 10 11 6 0 10 -2 10 -4z
m1283 -11 c-3 -9 -8 -14 -10 -11 -3 3 -2 9 2 15 9 16 15 13 8 -4z m-1271 -17
c-15 -15 -16 -31 -1 -22 7 4 10 1 7 -6 -7 -21 -26 -23 -23 -3 2 26 16 55 23
48 3 -3 0 -11 -6 -17z m228 12 c0 -5 -9 -14 -21 -20 -19 -11 -20 -10 -9 9 11
22 30 29 30 11z m1601 -20 c6 0 7 5 4 10 -3 6 -1 10 4 10 13 0 13 -3 5 -24 -7
-19 -34 -9 -33 13 0 10 2 11 6 4 2 -7 9 -13 14 -13z m51 0 c-2 -7 3 -17 10
-22 10 -8 10 -9 -1 -6 -8 2 -18 14 -23 27 -6 16 -5 21 5 18 6 -2 11 -10 9 -17z
m-1985 -5 c0 -8 -4 -12 -9 -9 -5 3 -6 10 -3 15 9 13 12 11 12 -6z m-457 -4 c0
-5 -7 -12 -16 -15 -14 -5 -15 -4 -4 9 14 17 20 19 20 6z m-104 -20 c-4 -5 0
-11 6 -14 7 -2 1 -4 -14 -4 -16 0 -28 4 -28 9 0 5 4 7 9 3 5 -3 12 -1 16 5 3
5 8 10 11 10 3 0 3 -4 0 -9z m74 -46 c0 -1 -7 -2 -15 -2 -8 0 -12 4 -9 8 2 4
0 10 -5 13 -5 4 -12 -2 -14 -11 -3 -10 -5 -3 -6 15 l-1 33 25 -27 c14 -15 25
-28 25 -29z m1815 46 c3 -5 0 -13 -6 -17 -7 -4 -9 -3 -5 4 3 5 0 13 -6 15 -9
4 -10 6 -1 6 6 1 14 -3 18 -8z m81 -14 c4 -3 -6 -5 -20 -3 -14 1 -29 5 -32 9
-3 3 6 4 20 3 15 -2 29 -6 32 -9z m511 -8 c-3 -13 -1 -19 6 -16 7 2 11 12 10
22 -1 12 2 14 10 6 7 -7 6 -16 -6 -29 -9 -10 -16 -21 -15 -23 2 -2 -2 1 -8 8
-6 7 -15 9 -20 5 -4 -4 -2 1 5 10 7 9 10 22 6 28 -3 5 -1 10 6 10 7 0 9 -8 6
-21z m-1854 -4 c-3 -9 -8 -14 -10 -11 -3 3 -2 9 2 15 9 16 15 13 8 -4z m1295
-22 c-9 -10 -18 -25 -21 -33 -3 -8 -5 -3 -4 12 1 15 4 25 8 22 4 -2 10 0 14 6
3 5 9 10 12 10 3 0 -1 -8 -9 -17z m-1873 -23 c3 -5 1 -10 -4 -10 -6 0 -11 5
-11 10 0 6 2 10 4 10 3 0 8 -4 11 -10z m495 0 c0 -5 -8 -10 -17 -10 -15 0 -16
2 -3 10 19 12 20 12 20 0z m1430 -15 c0 5 5 4 12 -3 9 -9 9 -15 -1 -24 -10
-11 -11 -9 -5 7 6 16 4 18 -6 8 -7 -6 -13 -22 -14 -35 -1 -16 -7 -22 -20 -20
-11 2 -15 -1 -11 -7 3 -6 16 -11 27 -11 31 0 18 -7 -24 -14 -36 -6 -53 6 -25
18 9 3 8 8 -3 18 -8 7 -16 22 -17 33 -1 11 0 14 3 7 4 -8 11 -5 25 10 l18 23
1 -25 c0 -17 -3 -21 -9 -12 -6 10 -10 9 -14 -7 -4 -17 -1 -21 18 -21 18 0 23
5 20 20 -2 11 0 20 5 20 5 0 7 8 4 18 -5 14 -4 15 5 2 6 -8 11 -11 11 -5z
m528 -61 c2 -30 -6 -29 -11 2 -1 10 -7 26 -12 34 -7 12 -6 13 6 3 8 -6 16 -24
17 -39z m53 37 c4 7 12 10 16 5 4 -4 0 -13 -10 -20 -9 -7 -17 -18 -17 -25 0
-15 -17 -14 -26 1 -4 6 -2 14 4 16 7 2 12 11 13 20 0 12 2 13 6 3 4 -11 7 -11
14 0z m-554 -43 c2 -18 0 -20 -7 -8 -12 18 -13 30 -2 30 4 0 9 -10 9 -22z
m-1977 -12 c0 -2 -7 -6 -15 -10 -8 -3 -15 -1 -15 4 0 6 7 10 15 10 8 0 15 -2
15 -4z m497 -18 c0 -7 2 -17 3 -23 5 -22 -12 -53 -26 -48 -12 4 -11 9 5 22 13
12 17 22 11 31 -5 8 -6 18 -4 22 7 11 11 10 11 -4z m1493 -13 c11 -13 10 -14
-4 -9 -9 3 -16 10 -16 15 0 13 6 11 20 -6z m526 3 c3 -4 -1 -5 -10 -4 -8 1
-18 5 -22 8 -3 4 1 5 10 4 8 -1 18 -5 22 -8z m-1956 -42 c10 -13 10 -17 3 -12
-8 4 -13 1 -13 -9 0 -10 5 -13 13 -9 8 5 8 3 -2 -9 -7 -9 -17 -15 -21 -12 -5
3 -10 1 -12 -5 -2 -6 -9 -1 -15 10 -11 17 -10 19 5 14 15 -5 15 -4 -1 9 -12
10 -14 17 -8 22 6 3 11 1 11 -4 0 -6 5 -11 10 -11 6 0 9 3 9 8 -2 12 1 36 4
31 1 -2 9 -13 17 -23z m1947 -8 c-3 -8 -6 -5 -6 6 -1 11 2 17 5 13 3 -3 4 -12
1 -19z m-2537 -23 c-7 -8 -17 -15 -23 -15 -6 0 -2 7 9 15 25 19 30 19 14 0z
m490 -6 c0 -6 -4 -7 -10 -4 -5 3 -10 11 -10 16 0 6 5 7 10 4 6 -3 10 -11 10
-16z m1547 -14 c6 -14 7 -23 2 -19 -13 8 -31 44 -22 44 4 0 13 -11 20 -25z
m-62 5 c-3 -5 1 -10 10 -10 10 0 13 5 9 13 -4 6 -3 8 1 4 17 -15 13 -35 -7
-40 -12 -3 -17 -10 -13 -17 5 -8 11 -7 23 2 16 12 16 11 2 -6 -14 -18 -13 -19
3 -13 11 4 16 3 12 -4 -4 -6 -13 -8 -21 -5 -8 3 -14 1 -14 -4 0 -20 -36 13
-38 34 -1 15 1 17 7 7 6 -10 10 -10 16 -1 4 6 2 17 -4 23 -16 16 -14 27 5 27
8 0 12 -4 9 -10z m635 -24 c0 -3 -4 -8 -10 -11 -5 -3 -10 -1 -10 4 0 6 5 11
10 11 6 0 10 -2 10 -4z m-2130 -32 c0 -16 -16 -19 -25 -4 -8 13 4 32 16 25 5
-4 9 -13 9 -21z m1771 -46 c-11 -10 -12 -10 -7 0 12 20 -4 35 -22 20 -15 -12
-16 -11 -3 5 13 16 16 16 30 3 13 -13 13 -18 2 -28z m153 33 c3 -5 -6 -11 -21
-14 -26 -5 -26 -4 -8 9 22 17 22 17 29 5z m91 -1 c-3 -5 -11 -10 -16 -10 -6 0
-7 5 -4 10 3 6 11 10 16 10 6 0 7 -4 4 -10z m-2501 -9 c3 -5 -1 -11 -9 -14 -9
-4 -12 -1 -8 9 6 16 10 17 17 5z m40 -6 c-4 -8 -11 -12 -16 -9 -6 4 -5 10 3
15 19 12 19 11 13 -6z m41 5 c3 -5 2 -10 -4 -10 -5 0 -13 5 -16 10 -3 6 -2 10
4 10 5 0 13 -4 16 -10z m2009 -6 c3 -8 2 -12 -4 -9 -6 3 -10 10 -10 16 0 14 7
11 14 -7z m248 -14 c-9 -16 -21 -30 -26 -30 -5 0 -3 7 4 15 6 8 9 18 6 24 -6
8 7 18 26 20 4 1 -1 -12 -10 -29z m-2059 -12 c-2 -5 0 -8 6 -8 5 0 11 3 14 8
2 4 3 2 1 -4 -1 -6 3 -17 9 -23 9 -9 8 -14 -3 -21 -21 -13 -35 5 -39 53 -1 5
-5 5 -11 2 -11 -7 -14 8 -4 18 8 8 33 -16 27 -25z m2275 20 c18 -18 14 -25
-15 -25 -22 0 -24 1 -8 9 14 8 15 12 4 19 -8 5 -9 9 -3 9 5 0 15 -5 22 -12z
m75 3 c11 -1 8 -29 -4 -36 -6 -4 -9 0 -7 10 2 11 -4 19 -15 21 -11 1 -22 5
-25 8 -3 4 5 4 19 2 13 -2 27 -5 32 -5z m-250 -15 c4 4 1 -5 -6 -20 -7 -14
-18 -26 -25 -26 -7 0 -10 -5 -7 -10 4 -7 13 -7 26 0 13 8 19 7 19 0 0 -6 5 -8
10 -5 16 10 12 -11 -5 -25 -14 -11 -19 -7 -16 12 0 4 -5 5 -13 2 -16 -6 -40
21 -31 36 3 6 12 7 18 4 9 -5 9 -4 0 6 -15 17 -5 44 12 30 6 -5 15 -7 18 -4z
m-2180 -13 c-7 -3 -13 -10 -13 -18 0 -7 -7 -18 -15 -25 -12 -10 -16 -9 -21 4
-9 23 4 34 17 16 8 -12 10 -10 6 8 -3 12 -1 20 3 17 5 -3 12 0 15 6 4 5 10 7
14 3 3 -4 0 -9 -6 -11z m2050 -23 c-3 -11 -11 -16 -20 -13 -11 4 -12 8 -3 13
7 4 10 13 6 19 -4 7 -1 9 7 5 9 -3 13 -13 10 -24z m353 7 c1 -9 -3 -17 -10
-17 -18 0 -25 10 -19 26 7 19 26 13 29 -9z m-2540 -12 c-2 -14 -16 -22 -16
-10 0 3 0 12 0 21 0 8 4 13 9 10 5 -4 8 -13 7 -21z m2644 15 c0 -5 -5 -10 -11
-10 -5 0 -7 5 -4 10 3 6 8 10 11 10 2 0 4 -4 4 -10z m-642 -11 c-2 -6 -8 -10
-13 -10 -5 0 -11 4 -13 10 -2 6 4 11 13 11 9 0 15 -5 13 -11z"/>
<path d="M2556 3382 c-3 -5 1 -9 9 -9 8 0 12 4 9 9 -3 4 -7 8 -9 8 -2 0 -6 -4
-9 -8z"/>
<path d="M2650 3241 c0 -7 -4 -9 -10 -6 -5 3 -10 1 -10 -5 0 -7 7 -10 15 -6
10 3 15 -1 15 -11 0 -14 2 -14 20 2 22 20 27 39 8 32 -7 -2 -12 -11 -10 -18 1
-8 -4 -5 -13 5 -8 11 -15 14 -15 7z"/>
<path d="M2563 3222 c0 -12 5 -22 9 -22 11 0 10 12 -2 30 -7 12 -9 10 -7 -8z"/>
<path d="M2630 3194 c0 -8 5 -12 10 -9 6 3 10 10 10 16 0 5 -4 9 -10 9 -5 0
-10 -7 -10 -16z"/>
<path d="M2580 3190 c-9 -6 -10 -10 -3 -10 6 0 15 5 18 10 8 12 4 12 -15 0z"/>
<path d="M2337 3174 c-8 -8 3 -34 15 -34 7 0 6 5 -1 13 -6 8 -8 17 -4 20 3 4
4 7 1 7 -2 0 -7 -3 -11 -6z"/>
<path d="M2625 3157 c-16 -10 -21 -16 -10 -12 11 4 30 10 43 12 12 3 22 9 22
12 0 13 -24 8 -55 -12z"/>
<path d="M2305 3029 c-4 -6 -5 -12 -2 -15 2 -3 7 2 10 11 7 17 1 20 -8 4z"/>
<path d="M2700 3005 c0 -8 4 -15 10 -15 5 0 7 7 4 15 -4 8 -8 15 -10 15 -2 0
-4 -7 -4 -15z"/>
<path d="M2239 2985 c-1 -8 -2 -21 -3 -27 -1 -14 43 -42 52 -33 3 3 2 5 -1 5
-4 0 -2 12 4 27 6 15 7 24 3 20 -4 -4 -18 0 -31 8 -21 14 -23 14 -24 0z m41
-27 c0 -13 -23 -5 -28 10 -2 7 2 10 12 6 9 -3 16 -11 16 -16z"/>
<path d="M2660 2979 c-13 -9 -13 -10 2 -5 12 3 18 -2 20 -17 2 -13 6 -18 10
-11 4 6 2 18 -5 27 -9 13 -16 14 -27 6z"/>
<path d="M2716 2972 c-8 -13 11 -35 23 -28 6 4 11 11 11 16 0 11 -28 21 -34
12z"/>
<path d="M2653 2945 c0 -8 4 -12 9 -9 4 3 8 9 8 15 0 5 -4 9 -8 9 -5 0 -9 -7
-9 -15z"/>
<path d="M2674 2919 c-3 -6 -1 -16 4 -21 8 -8 11 -5 9 11 -1 24 -3 25 -13 10z"/>
<path d="M2706 2915 c-3 -8 -1 -15 3 -15 5 0 11 7 15 15 3 8 1 15 -3 15 -5 0
-11 -7 -15 -15z"/>
<path d="M2230 2891 c0 -5 7 -12 16 -15 8 -3 12 -10 9 -16 -3 -5 -2 -10 4 -10
5 0 9 9 8 19 0 11 -5 17 -9 15 -4 -3 -8 0 -8 5 0 6 -4 11 -10 11 -5 0 -10 -4
-10 -9z"/>
<path d="M2730 2881 c0 -5 7 -11 14 -14 10 -4 13 -1 9 9 -6 15 -23 19 -23 5z"/>
<path d="M2680 2860 c-24 -15 -7 -18 20 -3 14 7 18 13 10 13 -8 0 -22 -4 -30
-10z"/>
<path d="M2767 2846 c-4 -9 2 -17 14 -21 28 -9 33 -1 10 19 -16 15 -19 15 -24
2z"/>
<path d="M2220 2792 c0 -5 -10 -14 -22 -21 -13 -6 -15 -9 -5 -7 20 6 20 5 7
-28 -6 -17 -6 -26 0 -26 6 0 10 9 10 20 0 11 5 20 11 20 5 0 7 5 3 11 -3 6 -1
15 6 19 9 5 9 9 1 14 -6 4 -11 3 -11 -2z"/>
<path d="M2697 2787 c-3 -8 4 -14 20 -15 22 -2 23 0 9 13 -18 18 -22 19 -29 2z"/>
<path d="M2710 2745 c7 -9 15 -13 17 -11 7 7 -7 26 -19 26 -6 0 -6 -6 2 -15z"/>
<path d="M2770 2724 c0 -8 5 -12 10 -9 6 3 10 10 10 16 0 5 -4 9 -10 9 -5 0
-10 -7 -10 -16z"/>
<path d="M2738 2713 c7 -3 16 -2 19 1 4 3 -2 6 -13 5 -11 0 -14 -3 -6 -6z"/>
<path d="M2771 2674 c0 -11 3 -14 6 -6 3 7 2 16 -1 19 -3 4 -6 -2 -5 -13z"/>
<path d="M2800 2680 c0 -5 5 -10 11 -10 5 0 7 5 4 10 -3 6 -8 10 -11 10 -2 0
-4 -4 -4 -10z"/>
<path d="M2745 2650 c5 -35 21 -60 39 -60 8 0 8 2 0 8 -10 6 -27 45 -29 64 0
3 -3 9 -7 13 -4 4 -5 -7 -3 -25z"/>
<path d="M2162 2649 c2 -7 10 -15 17 -17 8 -3 12 1 9 9 -2 7 -10 15 -17 17 -8
3 -12 -1 -9 -9z"/>
<path d="M2790 2633 c5 -2 8 -9 4 -14 -3 -5 0 -9 6 -9 15 0 7 23 -8 26 -7 1
-8 0 -2 -3z"/>
<path d="M2153 2615 c0 -8 4 -15 9 -15 4 0 8 7 8 15 0 8 -4 15 -8 15 -5 0 -9
-7 -9 -15z"/>
<path d="M2150 2575 c-7 -8 -9 -15 -4 -15 5 0 3 -4 -4 -9 -11 -7 -11 -9 2 -14
8 -3 19 -1 22 5 4 7 2 14 -5 16 -9 3 -9 7 0 18 6 8 9 14 6 14 -2 0 -10 -7 -17
-15z"/>
<path d="M2766 2564 c-3 -7 2 -18 10 -25 12 -10 13 -9 9 3 -4 9 3 19 17 25 23
10 23 10 -4 10 -15 0 -29 -5 -32 -13z"/>
<path d="M2100 2524 c7 -7 16 -12 20 -9 5 3 12 0 16 -6 4 -8 3 -9 -4 -5 -7 4
-12 2 -12 -4 0 -7 6 -10 13 -7 22 7 13 30 -16 38 -24 6 -26 5 -17 -7z"/>
<path d="M2804 2495 c3 -23 12 -26 13 -5 1 11 -2 20 -7 20 -4 0 -7 -7 -6 -15z"/>
<path d="M2141 2464 c0 -11 3 -14 6 -6 3 7 2 16 -1 19 -3 4 -6 -2 -5 -13z"/>
<path d="M2797 2459 c7 -7 15 -10 18 -7 3 3 -2 9 -12 12 -14 6 -15 5 -6 -5z"/>
<path d="M2823 2433 c-3 -10 -8 -22 -11 -27 -3 -5 0 -6 5 -3 11 7 25 47 17 47
-3 0 -7 -8 -11 -17z"/>
<path d="M2835 2380 c4 -6 11 -8 16 -5 14 9 11 15 -7 15 -8 0 -12 -5 -9 -10z"/>
<path d="M2824 2353 c3 -6 -1 -13 -11 -15 -11 -2 -14 -6 -8 -10 6 -4 17 -3 25
2 13 8 13 11 1 22 -9 8 -11 8 -7 1z"/>
<path d="M2291 2326 c-9 -11 -9 -16 0 -22 8 -4 9 -3 5 5 -4 7 2 15 16 20 15 7
17 10 7 10 -9 1 -22 -5 -28 -13z"/>
<path d="M2369 2328 c15 -21 31 -23 31 -6 0 6 -3 8 -7 5 -3 -4 -13 -1 -22 6
-14 11 -14 10 -2 -5z"/>
<path d="M2420 2330 c-9 -6 -10 -10 -3 -10 6 0 15 5 18 10 8 12 4 12 -15 0z"/>
<path d="M2538 2333 c6 -2 18 -2 25 0 6 3 1 5 -13 5 -14 0 -19 -2 -12 -5z"/>
<path d="M2233 2315 c-10 -11 -9 -13 6 -12 11 1 17 7 14 14 -6 16 -5 16 -20
-2z"/>
<path d="M2350 2311 c0 -10 19 -25 25 -20 1 2 -3 10 -11 17 -8 7 -14 8 -14 3z"/>
<path d="M2445 2310 c-3 -5 -1 -10 4 -10 6 0 11 5 11 10 0 6 -2 10 -4 10 -3 0
-8 -4 -11 -10z"/>
<path d="M2480 2308 c0 -4 7 -8 15 -8 8 0 15 4 15 8 0 5 -7 9 -15 9 -8 0 -15
-4 -15 -9z"/>
<path d="M2770 2310 c-7 -4 -18 -6 -25 -4 -6 3 -20 -4 -30 -16 -16 -18 -17
-20 -1 -20 9 0 21 -10 26 -22 l9 -23 0 23 c1 12 -4 22 -11 22 -6 0 -8 3 -5 6
12 13 35 -17 29 -38 -3 -15 -2 -19 7 -14 6 4 9 12 6 17 -4 5 -1 9 5 9 7 0 5 7
-4 16 -9 8 -16 19 -16 24 0 13 28 20 34 7 3 -9 5 -9 5 0 1 17 -13 23 -29 13z
m-20 -14 c0 -2 -7 -7 -16 -10 -8 -3 -12 -2 -9 4 6 10 25 14 25 6z"/>
<path d="M2310 2298 c0 -4 4 -8 9 -8 6 0 12 4 15 8 3 5 -1 9 -9 9 -8 0 -15 -4
-15 -9z"/>
<path d="M2280 2280 c8 -5 20 -10 25 -10 6 0 3 5 -5 10 -8 5 -19 10 -25 10 -5
0 -3 -5 5 -10z"/>
<path d="M2347 2279 c7 -7 15 -10 18 -7 3 3 -2 9 -12 12 -14 6 -15 5 -6 -5z"/>
<path d="M2465 2280 c-3 -6 1 -7 9 -4 18 7 21 14 7 14 -6 0 -13 -4 -16 -10z"/>
<path d="M2786 2272 c5 -4 12 -11 15 -15 3 -5 9 -2 12 5 3 9 -3 14 -15 15 -11
1 -16 -1 -12 -5z"/>
<path d="M2225 2200 c-3 -6 1 -7 9 -4 18 7 21 14 7 14 -6 0 -13 -4 -16 -10z"/>
<path d="M2825 2910 c3 -5 8 -10 11 -10 2 0 4 5 4 10 0 6 -5 10 -11 10 -5 0
-7 -4 -4 -10z"/>
<path d="M3659 1983 c-13 -16 -12 -17 4 -4 16 13 21 21 13 21 -2 0 -10 -8 -17
-17z"/>
<path d="M1997 1789 c7 -7 15 -10 18 -7 3 3 -2 9 -12 12 -14 6 -15 5 -6 -5z"/>
<path d="M1841 1774 c0 -11 3 -14 6 -6 3 7 2 16 -1 19 -3 4 -6 -2 -5 -13z"/>
<path d="M3200 1430 c0 -5 5 -10 11 -10 5 0 7 5 4 10 -3 6 -8 10 -11 10 -2 0
-4 -4 -4 -10z"/>
<path d="M2483 4149 c9 -6 14 -15 11 -21 -4 -6 -1 -9 6 -6 8 2 16 10 18 18 3
7 0 10 -6 6 -6 -3 -13 -2 -17 4 -3 5 -12 10 -18 10 -7 0 -4 -5 6 -11z"/>
<path d="M2651 4144 c0 -11 3 -14 6 -6 3 7 2 16 -1 19 -3 4 -6 -2 -5 -13z"/>
<path d="M2856 4152 c-2 -4 0 -14 6 -22 8 -12 9 -12 4 2 -3 10 1 18 12 21 16
4 16 5 0 6 -9 0 -19 -3 -22 -7z"/>
<path d="M2905 4148 c4 -10 11 -18 15 -18 4 0 14 8 21 18 12 15 12 16 -2 5
-12 -10 -18 -10 -28 0 -10 9 -11 8 -6 -5z"/>
<path d="M2260 4135 c-7 -9 -11 -17 -8 -20 2 -2 12 4 21 15 9 11 13 20 8 20
-5 0 -14 -7 -21 -15z"/>
<path d="M2553 4138 c1 -7 13 -21 27 -30 25 -18 25 -18 3 -18 -13 0 -23 5 -23
12 0 6 -3 8 -7 4 -5 -4 0 -14 11 -21 10 -8 15 -19 11 -27 -4 -7 2 -2 13 11 11
13 17 32 14 43 -4 16 -7 17 -14 6 -7 -9 -8 -7 -5 10 4 17 1 22 -14 22 -10 0
-18 -6 -16 -12z"/>
<path d="M2040 4128 c0 -6 -7 -8 -15 -4 -9 3 -15 0 -15 -9 0 -22 15 -25 29 -6
8 11 21 16 32 14 11 -3 19 -1 19 3 0 5 -11 10 -25 10 -14 1 -25 -3 -25 -8z"/>
<path d="M2371 4113 c6 -7 17 -13 23 -12 7 0 6 2 -2 6 -6 2 -10 8 -8 12 3 4
-1 8 -9 8 -11 0 -12 -4 -4 -14z"/>
<path d="M2526 4115 c-3 -8 -1 -15 4 -15 6 0 10 7 10 15 0 8 -2 15 -4 15 -2 0
-6 -7 -10 -15z"/>
<path d="M2685 4120 c3 -5 8 -10 11 -10 2 0 4 5 4 10 0 6 -5 10 -11 10 -5 0
-7 -4 -4 -10z"/>
<path d="M3030 4108 c1 -13 9 -41 20 -63 11 -22 19 -45 20 -51 0 -7 7 -25 15
-40 8 -16 15 -36 15 -44 0 -9 4 -20 9 -25 5 -6 14 -28 20 -50 12 -39 21 -62
41 -107 6 -13 30 -77 54 -143 47 -128 238 -637 261 -695 35 -89 65 -169 80
-215 9 -27 23 -65 32 -84 8 -18 19 -45 23 -60 5 -14 43 -116 85 -226 42 -110
88 -231 102 -270 14 -38 29 -79 34 -90 5 -11 18 -47 30 -80 11 -33 23 -67 26
-75 4 -8 7 -17 8 -20 1 -3 7 -18 14 -35 43 -102 112 -297 107 -302 -3 -3 3
-18 13 -32 15 -21 28 -51 36 -81 1 -3 7 -18 14 -35 6 -16 14 -36 16 -43 4 -10
-14 -13 -83 -12 -246 5 -832 -1 -832 -8 0 -5 6 -17 14 -27 12 -16 31 -19 160
-23 l146 -5 0 -58 0 -59 165 0 165 0 0 60 0 60 144 0 c148 0 176 4 176 24 0 6
-24 74 -54 151 l-54 140 25 3 c28 4 31 -9 -42 187 -49 129 -55 140 -81 145
-27 5 -34 21 -201 464 -96 253 -172 465 -170 470 3 6 41 19 86 29 l82 18 -24
42 c-84 146 -612 1146 -633 1199 -28 69 -64 107 -64 66z"/>
<path d="M2118 4113 c6 -3 10 -8 7 -12 -2 -5 7 -6 20 -3 35 6 31 17 -8 18 -17
1 -26 -1 -19 -3z"/>
<path d="M2617 4100 c7 -25 22 -36 18 -13 -2 10 -4 21 -4 26 -1 4 -5 7 -10 7
-5 0 -7 -9 -4 -20z"/>
<path d="M2653 4069 c-10 -25 -9 -29 5 -27 9 2 24 11 34 21 20 19 24 32 8 22
-6 -4 -17 -2 -23 4 -10 7 -16 3 -24 -20z"/>
<path d="M2520 4080 c0 -5 -10 -10 -22 -10 -13 0 -29 -4 -37 -9 -8 -5 5 -8 37
-7 59 1 69 7 42 24 -12 7 -20 8 -20 2z"/>
<path d="M2001 4064 c0 -11 3 -14 6 -6 3 7 2 16 -1 19 -3 4 -6 -2 -5 -13z"/>
<path d="M2025 4060 c-3 -5 1 -10 10 -10 10 0 13 -5 9 -12 -4 -7 -3 -8 4 -4
12 7 5 36 -8 36 -5 0 -12 -4 -15 -10z"/>
<path d="M1999 4023 c-13 -16 -12 -17 4 -4 16 13 21 21 13 21 -2 0 -10 -8 -17
-17z"/>
<path d="M2942 4023 c-11 -11 -9 -13 14 -9 34 6 39 12 17 18 -10 3 -24 -1 -31
-9z"/>
<path d="M2999 3993 c-7 -18 -13 -23 -18 -15 -4 8 -13 1 -25 -20 -11 -17 -14
-28 -7 -24 7 4 19 2 28 -6 12 -9 15 -9 9 0 -5 8 0 12 13 12 12 0 21 5 21 11 0
8 6 7 18 -2 15 -13 16 -12 3 4 -7 9 -10 17 -6 17 5 0 1 8 -8 18 -10 10 -14 22
-10 25 3 4 3 7 -1 7 -3 0 -11 -12 -17 -27z m20 -29 c-6 -8 -20 -14 -31 -14
-19 0 -19 1 3 19 26 21 47 17 28 -5z"/>
<path d="M2008 3984 c13 -9 27 -26 31 -37 7 -19 9 -17 13 12 4 28 2 32 -14 28
-10 -3 -18 -1 -18 4 0 5 -8 9 -17 9 -14 0 -13 -3 5 -16z"/>
<path d="M2940 3985 c0 -8 4 -15 10 -15 5 0 7 7 4 15 -4 8 -8 15 -10 15 -2 0
-4 -7 -4 -15z"/>
<path d="M1956 3968 c3 -4 9 -8 15 -8 5 0 9 4 9 8 0 5 -7 9 -15 9 -8 0 -12 -4
-9 -9z"/>
<path d="M1941 3934 c0 -11 3 -14 6 -6 3 7 2 16 -1 19 -3 4 -6 -2 -5 -13z"/>
<path d="M2010 3940 c-13 -9 -13 -10 0 -10 12 -1 11 -3 -2 -11 -10 -5 -18 -15
-18 -22 0 -8 3 -7 9 2 5 7 13 11 18 8 5 -3 9 5 9 19 0 13 0 24 0 24 -1 0 -8
-5 -16 -10z"/>
<path d="M3010 3919 c0 -5 5 -7 10 -4 6 3 10 8 10 11 0 2 -4 4 -10 4 -5 0 -10
-5 -10 -11z"/>
<path d="M1915 3870 c-3 -5 1 -10 10 -10 9 0 13 5 10 10 -3 6 -8 10 -10 10 -2
0 -7 -4 -10 -10z"/>
<path d="M1940 3839 c0 -5 5 -7 10 -4 6 3 10 8 10 11 0 2 -4 4 -10 4 -5 0 -10
-5 -10 -11z"/>
<path d="M1886 3804 c-3 -8 -1 -16 4 -19 6 -4 10 -1 10 5 0 6 5 8 10 5 6 -3
10 0 10 8 0 17 -27 18 -34 1z"/>
<path d="M1940 3790 c-13 -8 -12 -10 3 -10 9 0 17 5 17 10 0 12 -1 12 -20 0z"/>
<path d="M3030 3780 c-9 -6 -10 -10 -3 -10 6 0 15 5 18 10 8 12 4 12 -15 0z"/>
<path d="M1871 3744 c0 -11 3 -14 6 -6 3 7 2 16 -1 19 -3 4 -6 -2 -5 -13z"/>
<path d="M1906 3726 c18 -14 18 -15 2 -21 -28 -11 -21 -23 10 -17 15 3 21 7
14 10 -6 2 -9 8 -6 14 4 6 0 14 -7 19 -23 14 -34 10 -13 -5z"/>
<path d="M1874 3711 c4 -5 1 -11 -6 -13 -7 -3 -8 -7 -2 -11 5 -3 15 3 22 14
10 16 9 19 -4 19 -8 0 -13 -4 -10 -9z"/>
<path d="M1914 3672 c7 -11 -6 -17 -27 -13 -5 1 -6 -3 -3 -8 7 -11 46 -3 46
10 0 4 -5 11 -12 15 -7 4 -8 3 -4 -4z"/>
<path d="M1873 3623 c17 -4 17 -6 2 -23 -12 -14 -13 -20 -4 -26 7 -4 10 -3 6
3 -4 6 0 16 8 23 18 15 11 30 -13 29 -15 -1 -14 -2 1 -6z"/>
<path d="M1811 3605 c0 -5 6 -18 13 -28 12 -16 14 -16 20 -2 3 9 2 13 -3 10
-6 -3 -14 3 -20 12 -6 10 -10 14 -10 8z"/>
<path d="M1904 3598 c-4 -5 1 -17 10 -26 9 -9 16 -11 16 -5 0 6 7 13 15 15 10
2 7 7 -10 15 -16 7 -27 8 -31 1z"/>
<path d="M3165 3523 c0 -28 6 -29 22 -4 10 16 9 20 -5 23 -12 4 -17 -2 -17
-19z"/>
<path d="M1774 3435 c-20 -15 -11 -18 20 -6 11 4 15 10 9 14 -5 3 -19 0 -29
-8z"/>
<path d="M1765 3401 c-3 -5 -1 -12 5 -16 5 -3 10 1 10 9 0 18 -6 21 -15 7z"/>
<path d="M1740 3361 c-6 -11 -6 -22 -1 -25 5 -3 11 5 13 19 6 30 2 32 -12 6z"/>
<path d="M3225 3340 c-3 -5 -1 -10 4 -10 6 0 11 5 11 10 0 6 -2 10 -4 10 -3 0
-8 -4 -11 -10z"/>
<path d="M1790 3309 c0 -5 -5 -7 -12 -3 -6 4 -8 3 -4 -4 3 -5 0 -12 -6 -15 -7
-2 4 -4 24 -4 35 1 36 2 21 19 -19 21 -23 22 -23 7z"/>
<path d="M1710 3301 c0 -6 4 -13 10 -16 6 -3 7 1 4 9 -7 18 -14 21 -14 7z"/>
<path d="M1690 3270 c-12 -8 -10 -10 8 -10 13 0 20 4 17 10 -7 12 -6 12 -25 0z"/>
<path d="M3285 3270 c-4 -6 -12 -7 -18 -4 -7 4 -8 3 -4 -1 13 -15 37 -14 37 1
0 16 -6 18 -15 4z"/>
<path d="M3245 3141 c-3 -5 4 -12 15 -16 11 -4 18 -11 15 -16 -4 -5 -1 -9 4
-9 6 0 11 6 11 13 0 16 -37 39 -45 28z"/>
<path d="M1625 3080 c-6 -10 15 -50 28 -50 4 0 1 10 -8 23 -8 13 -12 27 -8 30
3 4 4 7 0 7 -3 0 -8 -4 -12 -10z"/>
<path d="M1655 3080 c-4 -6 3 -10 14 -10 25 0 27 6 6 13 -8 4 -17 2 -20 -3z"/>
<path d="M1692 3028 c-15 -15 -16 -28 -2 -28 6 0 10 7 10 16 0 9 5 12 12 8 7
-4 8 -3 4 4 -9 15 -9 15 -24 0z"/>
<path d="M1626 3011 c-7 -12 -4 -61 4 -61 4 0 6 16 6 35 -1 38 -2 40 -10 26z"/>
<path d="M1590 2950 c13 -25 13 -30 -4 -30 -14 0 -30 -29 -21 -38 3 -3 5 -2 5
3 0 4 9 0 20 -10 11 -10 20 -14 20 -9 0 5 4 4 8 -3 5 -8 12 -3 23 16 15 26 15
27 -5 28 -12 1 -15 -1 -8 -4 17 -7 5 -23 -18 -23 -17 0 -18 4 -10 26 14 36 12
51 -5 58 -13 4 -13 2 -5 -14z"/>
<path d="M1657 2943 c5 -13 3 -15 -13 -9 -14 5 -16 4 -7 -5 6 -6 16 -8 22 -5
14 9 15 36 1 36 -5 0 -6 -8 -3 -17z"/>
<path d="M3393 2943 c4 -3 2 -12 -4 -20 -9 -9 -8 -13 0 -13 6 0 11 2 11 4 0 2
3 11 6 20 4 10 1 16 -7 16 -7 0 -9 -3 -6 -7z"/>
<path d="M3355 2930 c-3 -6 1 -7 9 -4 18 7 21 14 7 14 -6 0 -13 -4 -16 -10z"/>
<path d="M1547 2841 c-10 -4 -19 -11 -19 -16 0 -6 -5 -9 -11 -7 -5 2 -3 -7 5
-19 8 -13 21 -25 29 -27 8 -2 5 2 -5 10 -21 16 -13 43 10 34 7 -3 16 0 20 6 4
7 3 8 -4 4 -7 -4 -12 -3 -12 3 0 5 6 12 13 14 6 3 8 5 2 6 -5 0 -18 -4 -28 -8z"/>
<path d="M3435 2810 c-3 -5 -3 -10 1 -10 4 0 0 -8 -9 -18 -15 -16 -15 -19 3
-30 11 -7 20 -8 20 -3 0 5 -6 11 -12 14 -7 2 -10 8 -6 12 10 10 40 -14 32 -26
-3 -5 2 -9 10 -9 8 0 20 -8 25 -17 6 -10 11 -13 11 -7 0 5 -14 23 -30 39 -20
19 -28 35 -24 47 6 19 -10 25 -21 8z"/>
<path d="M3416 2731 c-4 -7 -5 -15 -2 -18 9 -9 19 4 14 18 -4 11 -6 11 -12 0z"/>
<path d="M3446 2718 c3 -5 10 -6 15 -3 13 9 11 12 -6 12 -8 0 -12 -4 -9 -9z"/>
<path d="M3490 2692 c0 -6 9 -12 20 -15 11 -3 20 -3 20 -1 0 2 -9 8 -20 14
-11 6 -20 7 -20 2z"/>
<path d="M1467 2640 c-16 -16 -16 -17 15 -18 18 0 27 2 22 6 -6 4 -13 12 -15
18 -3 7 -10 5 -22 -6z"/>
<path d="M3530 2610 c0 -5 5 -10 11 -10 5 0 7 -5 3 -12 -4 -7 -3 -8 5 -4 9 6
9 11 0 22 -14 17 -19 18 -19 4z"/>
<path d="M1441 2594 c0 -11 3 -14 6 -6 3 7 2 16 -1 19 -3 4 -6 -2 -5 -13z"/>
<path d="M3490 2606 c0 -2 7 -7 16 -10 8 -3 12 -2 9 4 -6 10 -25 14 -25 6z"/>
<path d="M3553 2549 c3 -12 0 -22 -8 -25 -7 -3 -16 -12 -19 -21 -4 -9 5 -6 22
9 16 13 25 24 21 26 -4 2 -5 10 -2 18 3 8 0 14 -7 14 -8 0 -10 -8 -7 -21z"/>
<path d="M3520 2539 c0 -5 5 -7 10 -4 6 3 10 8 10 11 0 2 -4 4 -10 4 -5 0 -10
-5 -10 -11z"/>
<path d="M1400 2521 c0 -6 4 -13 10 -16 6 -3 7 1 4 9 -7 18 -14 21 -14 7z"/>
<path d="M1396 2475 c4 -8 1 -15 -5 -15 -6 0 -8 -7 -4 -15 3 -9 -2 -22 -13
-30 -11 -7 -16 -17 -11 -21 4 -4 7 -2 7 4 0 16 27 15 33 0 3 -7 4 4 3 25 -2
28 1 36 11 33 11 -4 11 -1 3 14 -12 23 -32 27 -24 5z"/>
<path d="M1454 2415 c-4 -10 -13 -14 -22 -10 -9 3 -13 3 -9 -1 4 -4 0 -15 -9
-25 -14 -16 -14 -17 1 -15 9 1 24 15 34 30 13 19 20 24 24 14 4 -8 6 -9 6 -1
1 19 -19 26 -25 8z"/>
<path d="M3536 2362 c-2 -4 4 -9 15 -9 10 -1 19 2 19 8 0 11 -27 12 -34 1z"/>
<path d="M1410 2342 c0 -7 -7 -12 -16 -12 -8 0 -12 -4 -9 -10 3 -5 10 -10 15
-10 10 0 22 31 15 38 -3 3 -5 0 -5 -6z"/>
<path d="M3632 2334 c-7 -8 -8 -14 -3 -14 10 0 25 19 20 25 -2 1 -10 -3 -17
-11z"/>
<path d="M1336 2299 c2 -4 -2 -9 -8 -12 -10 -3 -10 -8 1 -18 8 -8 11 -9 7 -2
-3 6 3 18 15 27 22 15 22 15 1 13 -11 0 -19 -4 -16 -8z"/>
<path d="M3654 2233 c4 -25 21 -33 22 -9 1 12 -4 23 -11 23 -7 0 -12 -6 -11
-14z"/>
<path d="M1298 2187 c-28 -11 -37 -26 -18 -28 20 -3 25 -4 38 -13 7 -4 16 -5
19 -2 4 3 1 6 -6 6 -7 0 -9 5 -6 10 4 6 3 10 -2 9 -22 -4 -25 2 -7 16 22 17
19 17 -18 2z"/>
<path d="M3670 2174 c0 -8 -4 -13 -8 -10 -12 7 -11 -26 1 -41 14 -19 48 -17
40 3 -5 13 -7 13 -14 2 -10 -15 -13 -2 -9 40 1 12 -1 22 -4 22 -3 0 -6 -7 -6
-16z"/>
<path d="M3690 2185 c0 -5 5 -17 10 -25 5 -8 10 -10 10 -5 0 6 -5 17 -10 25
-5 8 -10 11 -10 5z"/>
<path d="M3725 2139 c-4 -6 -5 -12 -2 -15 2 -3 7 2 10 11 7 17 1 20 -8 4z"/>
<path d="M1270 2103 c0 -17 17 -17 23 0 4 8 6 7 6 -3 1 -9 9 -16 20 -16 14 0
16 4 9 16 -12 19 -58 21 -58 3z"/>
<path d="M3716 2087 c3 -10 9 -15 12 -12 3 3 0 11 -7 18 -10 9 -11 8 -5 -6z"/>
<path d="M1252 2063 c13 -13 22 -14 40 -6 l22 10 -22 5 c-12 4 -20 2 -16 -3 3
-5 0 -9 -5 -9 -6 0 -11 5 -11 10 0 6 -5 10 -12 10 -8 0 -6 -6 4 -17z"/>
<path d="M3730 2060 c-8 -5 -11 -12 -7 -16 4 -4 13 -2 19 4 15 15 7 24 -12 12z"/>
<path d="M1245 2031 c-3 -6 5 -15 17 -21 21 -10 21 -10 6 3 -10 8 -15 17 -11
20 3 4 4 7 0 7 -3 0 -8 -4 -12 -9z"/>
<path d="M1207 2001 c-4 -17 -3 -21 5 -13 5 5 8 16 6 23 -3 8 -7 3 -11 -10z"/>
<path d="M1230 2000 c0 -5 5 -10 11 -10 5 0 7 5 4 10 -3 6 -8 10 -11 10 -2 0
-4 -4 -4 -10z"/>
<path d="M1278 1925 c19 -26 33 -24 25 3 -2 10 -13 18 -24 19 -18 2 -18 1 -1
-22z"/>
<path d="M3815 1869 c-4 -6 -5 -12 -2 -15 2 -3 7 2 10 11 7 17 1 20 -8 4z"/>
<path d="M1154 1858 c-4 -6 -2 -8 3 -5 6 4 16 0 22 -7 10 -11 9 -15 -4 -19
-12 -4 -11 -5 2 -3 10 1 18 7 18 14 0 7 6 16 13 21 9 5 3 8 -17 9 -17 0 -34
-4 -37 -10z"/>
<path d="M1255 1860 c3 -5 8 -10 11 -10 2 0 4 5 4 10 0 6 -5 10 -11 10 -5 0
-7 -4 -4 -10z"/>
<path d="M2530 1819 c-8 -5 -10 -9 -5 -9 6 0 3 -5 -5 -10 -8 -5 -10 -10 -4
-10 5 0 18 6 29 13 21 16 7 31 -15 16z"/>
<path d="M3014 1819 c-3 -6 -2 -15 4 -21 6 -6 8 -18 5 -27 -5 -13 -3 -14 7 -4
11 10 11 15 -1 29 -12 16 -12 17 3 12 10 -4 19 -1 22 8 6 17 -29 20 -40 3z"/>
<path d="M2731 1798 c1 -19 2 -19 6 -5 3 11 11 16 19 13 8 -3 14 -1 14 4 0 6
-9 10 -20 10 -14 0 -20 -6 -19 -22z"/>
<path d="M2425 1780 c3 -5 8 -10 11 -10 2 0 4 5 4 10 0 6 -5 10 -11 10 -5 0
-7 -4 -4 -10z"/>
<path d="M2784 1776 c5 -16 2 -17 -21 -13 -16 4 -22 4 -15 1 6 -3 9 -11 6 -16
-5 -7 -2 -8 5 -4 7 5 29 8 49 8 34 0 35 1 12 10 -13 5 -28 14 -33 21 -6 8 -7
5 -3 -7z"/>
<path d="M2958 1744 l4 -35 -373 1 c-206 0 -426 1 -491 0 l-116 0 -13 -50 c-7
-27 -16 -50 -20 -50 -4 0 -8 -8 -7 -17 0 -10 -6 -40 -15 -68 -8 -27 -22 -79
-33 -115 -10 -36 -22 -67 -26 -68 -5 -2 -6 -7 -4 -11 3 -4 -1 -27 -8 -52 l-13
-44 -422 -2 c-233 -1 -429 -4 -437 -7 -11 -4 -21 -43 -11 -47 1 -1 76 -5 167
-9 149 -7 191 -14 434 -68 149 -34 273 -59 277 -56 4 2 37 47 73 98 l66 94
-21 54 -20 54 44 150 44 149 498 3 c491 2 497 2 492 22 -3 13 0 20 8 20 8 0
16 4 19 9 3 4 -6 6 -21 3 -17 -3 -24 -1 -19 6 3 6 2 13 -4 17 -6 4 -7 12 -3
18 4 7 0 6 -10 -2 -18 -14 -23 -26 -8 -16 5 3 12 1 16 -5 3 -5 -3 -10 -14 -10
-17 0 -21 6 -21 29 0 17 -4 32 -8 35 -4 2 -6 -11 -4 -30z"/>
<path d="M2300 1766 c0 -2 8 -10 18 -17 15 -13 16 -12 3 4 -13 16 -21 21 -21
13z"/>
<path d="M2706 1762 c-3 -5 1 -9 9 -9 8 0 15 4 15 9 0 4 -4 8 -9 8 -6 0 -12
-4 -15 -8z"/>
<path d="M1112 1750 c0 -8 4 -26 8 -40 6 -20 8 -21 8 -5 0 11 -3 29 -8 40 -5
12 -8 14 -8 5z"/>
<path d="M1143 1753 c-15 -5 -17 -23 -4 -23 5 0 11 7 15 15 3 8 4 15 3 14 -1
0 -8 -3 -14 -6z"/>
<path d="M2463 1753 c9 -2 23 -2 30 0 6 3 -1 5 -18 5 -16 0 -22 -2 -12 -5z"/>
<path d="M3850 1730 c14 -9 7 -14 -12 -11 -5 0 -8 -4 -8 -9 0 -6 8 -10 18 -8
9 2 16 -3 15 -9 -2 -7 5 -13 15 -13 10 0 13 -3 6 -8 -6 -4 -4 -13 8 -24 10
-10 18 -14 18 -9 0 6 -5 13 -10 16 -6 4 -8 10 -5 15 3 5 1 11 -5 15 -6 4 -8
11 -4 16 3 5 2 9 -3 8 -19 -3 -25 2 -15 14 8 10 6 13 -11 14 -17 2 -19 0 -7
-7z"/>
<path d="M1183 1714 c4 -7 -2 -14 -16 -18 -18 -5 -20 -8 -7 -16 11 -8 9 -9
-11 -4 -15 3 -30 1 -33 -5 -4 -5 -13 -8 -21 -4 -8 3 -15 0 -15 -7 0 -6 5 -8
10 -5 6 3 10 -4 10 -17 0 -18 2 -20 9 -8 6 8 8 17 5 21 -2 4 0 10 6 14 5 3 10
2 10 -4 0 -6 6 -8 13 -6 19 7 38 -10 31 -28 -3 -9 -10 -14 -15 -11 -5 3 -6 -1
-3 -9 3 -8 -2 -20 -10 -27 -13 -10 -17 -9 -23 6 -9 21 -33 30 -33 13 0 -5 -5
-7 -12 -3 -7 4 -8 3 -4 -4 4 -6 13 -9 20 -6 7 3 19 -2 26 -11 9 -11 16 -12 25
-5 9 8 15 8 20 0 3 -5 2 -10 -3 -10 -5 0 -9 -7 -9 -15 0 -8 4 -15 9 -15 4 0 8
5 8 11 0 5 5 7 12 3 7 -4 8 -3 4 4 -4 7 -2 12 4 12 7 0 5 7 -4 16 -17 16 -22
36 -8 32 4 -2 7 0 7 4 0 12 69 46 79 40 5 -3 6 -1 3 5 -3 5 -20 8 -37 7 -25
-2 -30 1 -25 16 3 10 -2 23 -12 31 -9 8 -14 9 -10 3z m13 -43 c1 -23 -2 -27
-12 -18 -14 14 -14 29 1 39 6 4 10 8 10 8 0 0 0 -13 1 -29z"/>
<path d="M3073 1695 c0 -18 23 -20 33 -2 4 6 4 9 -1 5 -4 -4 -13 -3 -20 2 -8
7 -12 5 -12 -5z"/>
<path d="M3068 1663 c6 -2 12 -11 12 -19 0 -8 6 -14 13 -14 8 0 7 -3 -3 -9 -8
-6 -18 -7 -22 -5 -4 3 -8 1 -8 -4 0 -6 11 -9 24 -8 13 0 23 6 22 11 -4 22 -27
55 -39 54 -9 0 -9 -2 1 -6z"/>
<path d="M1773 1645 c0 -8 4 -12 9 -9 5 3 6 10 3 15 -9 13 -12 11 -12 -6z"/>
<path d="M3067 1583 c19 -4 21 -8 13 -23 -8 -16 -8 -18 5 -14 8 4 15 11 15 16
0 6 6 5 15 -2 10 -8 15 -9 15 -2 0 16 -34 32 -62 31 l-23 -2 22 -4z"/>
<path d="M1036 1555 c-9 -26 -7 -32 5 -12 6 10 9 21 6 23 -2 3 -7 -2 -11 -11z"/>
<path d="M1055 1539 c-4 -6 -4 -13 -1 -16 3 -4 6 -1 6 6 0 7 5 9 12 5 7 -4 8
-3 4 4 -9 15 -13 15 -21 1z"/>
<path d="M3100 1536 c0 -2 7 -7 16 -10 8 -3 12 -2 9 4 -6 10 -25 14 -25 6z"/>
<path d="M1088 1505 c-11 -15 -24 -21 -36 -18 -22 5 -49 -21 -32 -32 6 -4 14
-4 17 -1 4 3 1 6 -6 6 -7 0 -9 5 -6 10 4 6 14 9 23 6 19 -6 66 28 60 43 -1 5
-11 -1 -20 -14z"/>
<path d="M3138 1497 c-15 -12 -15 -14 4 -26 11 -7 17 -8 14 -2 -4 5 -2 12 4
16 12 7 14 25 3 25 -5 0 -16 -6 -25 -13z"/>
<path d="M3929 1468 c-6 -22 -4 -35 5 -35 7 0 13 9 13 19 1 10 -2 18 -8 18 -5
0 -9 -1 -10 -2z"/>
<path d="M3115 1449 c-4 -6 -5 -12 -2 -15 2 -3 7 2 10 11 7 17 1 20 -8 4z"/>
<path d="M1001 1443 c0 -6 -4 -20 -7 -30 -5 -14 -4 -15 5 -7 7 7 11 20 8 30
-3 11 -5 14 -6 7z"/>
<path d="M1790 1440 c0 -5 6 -10 14 -10 8 0 17 -6 19 -12 4 -10 6 -10 6 -1 1
7 -8 17 -19 23 -14 7 -20 7 -20 0z"/>
<path d="M1027 1433 c-12 -12 -7 -31 9 -37 14 -6 15 -4 4 10 -12 13 -11 17 1
25 8 5 9 9 3 9 -6 0 -14 -3 -17 -7z"/>
<path d="M1060 1433 c0 -6 5 -15 10 -18 8 -5 7 -11 0 -20 -7 -8 -9 -19 -5 -25
3 -6 -3 -10 -15 -10 -12 0 -19 4 -16 8 3 5 0 9 -7 9 -7 0 -13 -16 -14 -36 0
-23 1 -30 6 -18 6 17 8 17 20 3 7 -9 17 -13 22 -10 5 2 11 -7 15 -21 3 -14 10
-25 15 -25 5 0 6 7 2 17 -5 14 -1 15 30 10 35 -5 58 5 38 17 -5 4 -12 0 -14
-6 -3 -7 -6 -8 -6 -2 -1 6 -14 9 -32 6 -35 -5 -34 -12 -15 96 3 17 1 32 -4 32
-6 0 -10 -6 -10 -12 0 -9 -4 -8 -10 2 -6 9 -10 10 -10 3z m10 -95 c0 -15 -18
-17 -30 -3 -9 11 -8 14 9 12 12 -1 21 -5 21 -9z"/>
<path d="M1791 1403 c7 -12 15 -20 18 -17 3 2 -3 12 -13 22 -17 16 -18 16 -5
-5z"/>
<path d="M3121 1415 c1 -19 18 -51 18 -35 0 8 -4 22 -9 30 -5 8 -9 11 -9 5z"/>
<path d="M3930 1405 c-10 -12 -10 -15 2 -15 8 0 15 7 15 15 0 8 -1 15 -2 15
-2 0 -8 -7 -15 -15z"/>
<path d="M3976 1412 c-3 -5 1 -9 9 -9 8 0 12 4 9 9 -3 4 -7 8 -9 8 -2 0 -6 -4
-9 -8z"/>
<path d="M3974 1378 c-4 -5 -3 -12 0 -15 3 -4 6 -1 6 6 0 7 4 10 9 6 5 -3 12
-2 15 3 3 5 -2 9 -10 9 -8 0 -17 -4 -20 -9z"/>
<path d="M4010 1355 c0 -8 4 -15 10 -15 5 0 7 7 4 15 -4 8 -8 15 -10 15 -2 0
-4 -7 -4 -15z"/>
<path d="M1709 1358 c-14 -46 4 -88 37 -88 13 0 26 5 29 10 4 7 -3 9 -22 5
l-28 -6 28 16 c36 21 35 30 -2 10 -34 -17 -45 -8 -35 30 3 14 3 25 0 25 -3 0
-6 -1 -7 -2z"/>
<path d="M970 1340 c10 -6 11 -10 3 -10 -7 0 -13 -5 -13 -11 0 -8 5 -8 15 1
20 17 19 30 -2 30 -15 0 -16 -2 -3 -10z"/>
<path d="M3773 1320 c-1 -11 2 -20 7 -20 4 0 7 7 6 15 -3 23 -12 26 -13 5z"/>
<path d="M1200 1321 c0 -5 7 -12 16 -15 8 -3 13 -10 9 -15 -3 -5 -2 -12 3 -15
12 -7 11 26 -1 42 -11 14 -27 16 -27 3z"/>
<path d="M1419 1319 c0 -2 -2 -12 -4 -22 -2 -9 0 -15 5 -12 5 3 11 -1 14 -7 2
-7 4 -3 2 9 -2 20 -15 44 -17 32z"/>
<path d="M1250 1300 c0 -5 5 -10 11 -10 5 0 7 5 4 10 -3 6 -8 10 -11 10 -2 0
-4 -4 -4 -10z"/>
<path d="M1560 1302 c0 -6 -9 -9 -19 -7 -11 2 -22 -3 -25 -11 -3 -9 1 -14 13
-14 20 0 48 27 37 37 -3 3 -6 1 -6 -5z"/>
<path d="M1665 1300 c-3 -5 -1 -10 4 -10 6 0 11 5 11 10 0 6 -2 10 -4 10 -3 0
-8 -4 -11 -10z"/>
<path d="M3180 1305 c0 -5 5 -17 10 -25 5 -8 10 -10 10 -5 0 6 -5 17 -10 25
-5 8 -10 11 -10 5z"/>
<path d="M3219 1308 c-7 -25 -4 -34 13 -34 17 0 17 2 4 12 -9 6 -13 14 -9 17
3 4 3 7 0 7 -4 0 -7 -1 -8 -2z"/>
<path d="M4011 1301 c-11 -7 -10 -11 7 -20 17 -9 19 -8 15 9 -3 11 -6 20 -7
20 0 0 -7 -4 -15 -9z"/>
<path d="M946 1283 c-6 -14 -5 -15 5 -6 7 7 10 15 7 18 -3 3 -9 -2 -12 -12z"/>
<path d="M977 1283 c4 -11 8 -12 13 -3 6 9 9 9 13 1 4 -8 5 -8 3 0 -1 7 -9 13
-18 15 -11 1 -15 -3 -11 -13z"/>
<path d="M1045 1289 c-4 -5 -4 -13 -1 -16 3 -4 6 0 6 8 0 11 2 11 10 -1 6 -9
10 -10 10 -3 0 17 -17 25 -25 12z"/>
<path d="M3289 1287 c13 -13 43 -19 36 -7 -3 5 1 10 7 13 7 3 -2 5 -20 4 -23
0 -30 -3 -23 -10z"/>
<path d="M3500 1290 c-9 -6 -10 -10 -3 -10 6 0 15 5 18 10 8 12 4 12 -15 0z"/>
<path d="M3751 1284 c0 -11 3 -14 6 -6 3 7 2 16 -1 19 -3 4 -6 -2 -5 -13z"/>
<path d="M3530 1280 c-9 -6 -10 -10 -3 -10 6 0 15 5 18 10 8 12 4 12 -15 0z"/>
</g>
</svg>
